<?xml version="1.0" encoding="utf-8"?>
<!-- Generator: Adobe Illustrator 16.0.0, SVG Export Plug-In . SVG Version: 6.00 Build 0)  -->
<!DOCTYPE svg PUBLIC "-//W3C//DTD SVG 1.1//EN" "http://www.w3.org/Graphics/SVG/1.1/DTD/svg11.dtd">
<svg version="1.1" xmlns="http://www.w3.org/2000/svg" xmlns:xlink="http://www.w3.org/1999/xlink" x="0px" y="0px" width="612px"
	 height="792px" viewBox="0 0 612 792" enable-background="new 0 0 612 792" xml:space="preserve">
<g id="Layer_1">
	<g>
		<path fill="none" stroke="#000000" stroke-width="0.5" stroke-miterlimit="10" d="M367.903,400.461
			c0.122,0.036,0.078-0.382,0.097-0.458C367.795,400.097,367.908,400.569,367.903,400.461z"/>
		<path fill="none" stroke="#000000" stroke-width="0.5" stroke-miterlimit="10" d="M365.88,401.412
			C366.359,401.126,364.948,401.968,365.88,401.412L365.88,401.412z"/>
		<path fill="none" stroke="#000000" stroke-width="0.5" stroke-miterlimit="10" d="M363.988,401.404
			c0.214,0.857,1.135,0.088,1.23-0.272C363.773,401.952,364.196,401.548,363.988,401.404
			C364.059,401.687,364.277,401.604,363.988,401.404z"/>
		<path fill="none" stroke="#000000" stroke-width="0.5" stroke-miterlimit="10" d="M362.98,399.86
			C363.051,400.175,363.376,399.941,362.98,399.86C363.042,400.138,363.075,399.88,362.98,399.86z"/>
		<path fill="none" stroke="#000000" stroke-width="0.5" stroke-miterlimit="10" d="M363.173,399.877
			C363.372,399.856,363.042,399.644,363.173,399.877L363.173,399.877z"/>
		<path fill="none" stroke="#000000" stroke-width="0.5" stroke-miterlimit="10" d="M362.253,400.036
			C362.55,399.198,362.036,399.654,362.253,400.036C362.253,400.036,362.1,399.767,362.253,400.036z"/>
		<path fill="none" stroke="#000000" stroke-width="0.5" stroke-miterlimit="10" d="M362.004,400.558l0.136-0.105
			C362.116,400.384,362.08,400.359,362.004,400.558z"/>
		<path fill="none" stroke="#000000" stroke-width="0.5" stroke-miterlimit="10" d="M362.428,400.23
			C362.006,400.702,362.148,400.572,362.428,400.23C362.428,400.23,362.306,400.38,362.428,400.23z"/>
		<path fill="none" stroke="#000000" stroke-width="0.5" stroke-miterlimit="10" d="M362.592,400.339
			c0.146,0.156,0.337,0.254,0.073,0.5C363.167,400.741,363.094,400.239,362.592,400.339z"/>
		<path fill="none" stroke="#000000" stroke-width="0.5" stroke-miterlimit="10" d="M363.892,402.143
			C364.651,402.291,363.888,402.077,363.892,402.143C363.892,402.143,363.88,401.919,363.892,402.143z"/>
		<path fill="none" stroke="#000000" stroke-width="0.5" stroke-miterlimit="10" d="M360.618,399.667
			C360.553,400.268,360.664,400.472,360.618,399.667C360.602,399.818,360.631,399.892,360.618,399.667z"/>
		<path fill="none" stroke="#000000" stroke-width="0.5" stroke-miterlimit="10" d="M360.726,400.266l-0.29,0.261
			C360.694,400.558,360.742,400.433,360.726,400.266z"/>
		<path fill="none" stroke="#000000" stroke-width="0.5" stroke-miterlimit="10" d="M361.957,401.35
			C362.666,400.478,362.174,401.083,361.957,401.35L361.957,401.35z"/>
		<path fill="none" stroke="#000000" stroke-width="0.5" stroke-miterlimit="10" d="M359.51,399.647
			C359.873,398.43,359.28,400.419,359.51,399.647L359.51,399.647z"/>
		<path fill="none" stroke="#000000" stroke-width="0.5" stroke-miterlimit="10" d="M358.775,399.709
			C359.062,399.021,357.993,398.881,358.775,399.709C358.897,399.418,358.551,399.471,358.775,399.709z"/>
		<path fill="none" stroke="#000000" stroke-width="0.5" stroke-miterlimit="10" d="M357.957,399.892
			c0.081-0.07,0.166-0.195,0.258-0.328C358.127,399.632,358.043,399.728,357.957,399.892z"/>
		<path fill="none" stroke="#000000" stroke-width="0.5" stroke-miterlimit="10" d="M359.941,400.451
			C359.682,399.385,359.568,400.433,359.941,400.451C359.92,400.359,359.902,400.449,359.941,400.451z"/>
		<path fill="none" stroke="#000000" stroke-width="0.5" stroke-miterlimit="10" d="M359.832,400.458
			C359.773,400.449,359.23,400.368,359.832,400.458C359.832,400.458,359.688,400.437,359.832,400.458z"/>
		<path fill="none" stroke="#000000" stroke-width="0.5" stroke-miterlimit="10" d="M359.971,400.453l-0.029-0.002
			C359.953,400.493,359.959,400.507,359.971,400.453z"/>
		<path fill="none" stroke="#000000" stroke-width="0.5" stroke-miterlimit="10" d="M361.197,400.963
			c-0.171,0.239-0.526,0.495-0.183,0.859C361.137,401.53,360.94,401.322,361.197,400.963z"/>
		<path fill="none" stroke="#000000" stroke-width="0.5" stroke-miterlimit="10" d="M360.112,400.987
			C360.393,400.885,360.825,400.728,360.112,400.987L360.112,400.987z"/>
		<path fill="none" stroke="#000000" stroke-width="0.5" stroke-miterlimit="10" d="M359.961,401.123
			C360.129,400.854,360.067,400.953,359.961,401.123L359.961,401.123z"/>
		<path fill="none" stroke="#000000" stroke-width="0.5" stroke-miterlimit="10" d="M358.484,400.292
			C357.811,401.23,358.66,400.277,358.484,400.292C358.352,400.478,358.673,400.276,358.484,400.292z"/>
		<path fill="none" stroke="#000000" stroke-width="0.5" stroke-miterlimit="10" d="M359.139,400.41l-0.029,0.024
			C359.127,400.471,359.143,400.482,359.139,400.41z"/>
		<path fill="none" stroke="#000000" stroke-width="0.5" stroke-miterlimit="10" d="M356.423,400.521
			C356.479,400.689,356.432,400.537,356.423,400.521C356.431,400.544,356.423,400.521,356.423,400.521z"/>
		<path fill="none" stroke="#000000" stroke-width="0.5" stroke-miterlimit="10" d="M358.602,400.731
			C358.713,400.8,359.094,400.494,358.602,400.731C358.734,400.813,358.56,400.752,358.602,400.731z"/>
		<path fill="none" stroke="#000000" stroke-width="0.5" stroke-miterlimit="10" d="M357.505,400.091
			c0.069,0.09,0.147,0.166,0.229,0.235C357.667,400.19,357.529,399.979,357.505,400.091z"/>
		<path fill="none" stroke="#000000" stroke-width="0.5" stroke-miterlimit="10" d="M359.064,400.316
			c0.007-0.007,0.013-0.015,0.02-0.019C359.041,400.206,359.047,400.251,359.064,400.316z"/>
		<path fill="none" stroke="#000000" stroke-width="0.5" stroke-miterlimit="10" d="M359.064,400.316
			C358.604,400.731,359.141,400.587,359.064,400.316C358.996,400.378,359.076,400.358,359.064,400.316z"/>
		<path fill="none" stroke="#000000" stroke-width="0.5" stroke-miterlimit="10" d="M355.932,403.263
			c0.086-1.431,1.188-0.774,0.518-2.665C356.398,401.557,355.549,402.862,355.932,403.263
			C355.988,402.326,355.834,403.16,355.932,403.263z"/>
		<path fill="none" stroke="#000000" stroke-width="0.5" stroke-miterlimit="10" d="M357.029,400.638
			C356.459,400.188,356.449,400.181,357.029,400.638L357.029,400.638z"/>
		<path fill="none" stroke="#000000" stroke-width="0.5" stroke-miterlimit="10" d="M357.717,400.587
			c-0.072,0.36-0.144,0.721-0.215,1.081c0.379-0.313,0.506-0.713,0.381-1.198C357.906,400.576,357.115,400.694,357.717,400.587
			C357.506,400.92,357.438,400.637,357.717,400.587z"/>
		<path fill="none" stroke="#000000" stroke-width="0.5" stroke-miterlimit="10" d="M360.698,402.749
			c-0.019-0.038-0.018-0.068-0.02-0.1C360.641,402.702,360.626,402.737,360.698,402.749z"/>
		<path fill="none" stroke="#000000" stroke-width="0.5" stroke-miterlimit="10" d="M360.453,402.489
			c0.287-0.412-0.456-0.813-0.29-1.045C361.259,405.395,360.092,401.622,360.453,402.489
			C360.477,402.457,360.295,402.108,360.453,402.489z"/>
		<path fill="none" stroke="#000000" stroke-width="0.5" stroke-miterlimit="10" d="M359.068,401.647
			C358.436,402.398,358.943,402.257,359.068,401.647C359.068,401.647,359.033,401.82,359.068,401.647z"/>
		<path fill="none" stroke="#000000" stroke-width="0.5" stroke-miterlimit="10" d="M356.366,400.306
			C355.946,399.24,356.561,400.8,356.366,400.306L356.366,400.306z"/>
		<path fill="none" stroke="#000000" stroke-width="0.5" stroke-miterlimit="10" d="M355.723,400.36
			C355.596,399.582,355.693,400.176,355.723,400.36L355.723,400.36z"/>
		<path fill="none" stroke="#000000" stroke-width="0.5" stroke-miterlimit="10" d="M319.438,405.271l-0.145,0.112
			C319.361,405.349,319.405,405.311,319.438,405.271z"/>
		<path fill="none" stroke="#000000" stroke-width="0.5" stroke-miterlimit="10" d="M320.49,405.298l0.025-0.195
			C320.467,405.21,320.447,405.289,320.49,405.298z"/>
		<path fill="none" stroke="#000000" stroke-width="0.5" stroke-miterlimit="10" d="M339.932,400.405
			C339.361,399.41,339.582,400.067,339.932,400.405C339.719,400.035,339.834,400.312,339.932,400.405z"/>
		<path fill="none" stroke="#000000" stroke-width="0.5" stroke-miterlimit="10" d="M329.115,402.995
			C329.262,403.308,329.626,402.285,329.115,402.995C329.135,403.037,329.188,402.895,329.115,402.995z"/>
		<path fill="none" stroke="#000000" stroke-width="0.5" stroke-miterlimit="10" d="M328.967,404.79l-0.279-0.279
			C328.75,404.608,328.84,404.702,328.967,404.79z"/>
		<path fill="none" stroke="#000000" stroke-width="0.5" stroke-miterlimit="10" d="M313.689,405.73l-0.17,0.442
			C313.785,406.17,313.668,405.947,313.689,405.73z"/>
		<path fill="none" stroke="#000000" stroke-width="0.5" stroke-miterlimit="10" d="M349.137,400.521
			c-0.182-0.17-0.328-0.241-0.455-0.262C348.901,400.507,349.079,400.881,349.137,400.521z"/>
		<path fill="none" stroke="#000000" stroke-width="0.5" stroke-miterlimit="10" d="M319.852,400.667
			c-0.088,0.078-0.127,0.166-0.124,0.264C319.819,400.856,319.871,400.772,319.852,400.667z"/>
		<path fill="none" stroke="#000000" stroke-width="0.5" stroke-miterlimit="10" d="M348.154,400.26
			C348.752,401.088,348.695,399.345,348.154,400.26C348.186,400.304,348.332,399.958,348.154,400.26z"/>
		<path fill="none" stroke="#000000" stroke-width="0.5" stroke-miterlimit="10" d="M292.84,405.371
			c-0.015-0.02-0.033-0.028-0.047-0.052C292.788,405.378,292.809,405.381,292.84,405.371z"/>
		<path fill="none" stroke="#000000" stroke-width="0.5" stroke-miterlimit="10" d="M286.766,400.993
			c0.06-0.027,0.157-0.027,0.25-0.033C286.971,400.931,286.896,400.933,286.766,400.993z"/>
		<path fill="none" stroke="#000000" stroke-width="0.5" stroke-miterlimit="10" d="M353.136,400.171
			C353.271,400.143,353.157,400.123,353.136,400.171L353.136,400.171z"/>
		<path fill="none" stroke="#000000" stroke-width="0.5" stroke-miterlimit="10" d="M353.799,401.887
			c-0.029,0.049-0.051,0.11-0.055,0.211C353.756,401.993,353.775,401.927,353.799,401.887z"/>
		<path fill="none" stroke="#000000" stroke-width="0.5" stroke-miterlimit="10" d="M346.795,402.96l-0.012-0.002
			C346.824,403.044,346.816,403.027,346.795,402.96z"/>
		<path fill="none" stroke="#000000" stroke-width="0.5" stroke-miterlimit="10" d="M353.341,400.368
			c-0.051-0.053-0.11-0.098-0.175-0.129C353.195,400.272,353.248,400.315,353.341,400.368z"/>
		<path fill="none" stroke="#000000" stroke-width="0.5" stroke-miterlimit="10" d="M353.313,400.163
			c0.048,0.017,0.084,0.029,0.119,0.042C353.449,400.133,353.435,400.087,353.313,400.163z"/>
		<path fill="none" stroke="#000000" stroke-width="0.5" stroke-miterlimit="10" d="M352.945,400.194
			C353.331,400.16,353.128,400.172,352.945,400.194C353.023,400.188,353.039,400.183,352.945,400.194z"/>
		<path fill="none" stroke="#000000" stroke-width="0.5" stroke-miterlimit="10" d="M304.011,404.21
			c-0.009-0.014-0.02-0.022-0.029-0.041C303.844,404.349,303.905,404.32,304.011,404.21z"/>
		<path fill="none" stroke="#000000" stroke-width="0.5" stroke-miterlimit="10" d="M336.382,404.91
			C336.395,404.9,336.393,404.834,336.382,404.91C336.389,404.905,336.382,404.91,336.382,404.91z"/>
		<path fill="none" stroke="#000000" stroke-width="0.5" stroke-miterlimit="10" d="M335.892,405.233
			c0.253-0.655,0.733-0.559,0.323-1.61C336.107,404.16,336,404.696,335.892,405.233z"/>
		<path fill="none" stroke="#000000" stroke-width="0.5" stroke-miterlimit="10" d="M316.918,405.396
			c-0.081,0.45-0.098,0.903-0.049,1.358c0.066-1.862,3.404-1.062,4.397-2.35c0.497,1.147,0.122,0.944,1.193,2.237
			c-2.031-2.459,1.294-1.392,1.452-0.517c0.245,0.049,2.059-1.87,2.861-1.776c1.614,0.189,1.947,0.543,2.626-2.229
			c0.767,1.215-0.854,1.274-0.028,2.767c0.675-0.674,1.613-1.577,2.521-1.905c-0.241,0.624,0.186,2.025-1.107,1.619
			c3.316,1.03,5.214-0.556,5.844-2.594c-0.133,1.027-0.281,4.563,0.284,1.727c0.617,1.553,0.937,1.507,0.96-0.137
			c0.025,3.089-0.551-1.501,0.619,1.396c1.902-0.938,0.62-2.752,1.842-0.303c0.115-1.188,0.531-2.26,1.246-3.214
			c0.17,0.285,0.354,0.27,0.551-0.046c-0.148,0.47-1.133,4.211-1.339,4.244c0.872,0.218,1.364-0.127,1.476-1.035
			c-2.232,1.676-0.412-0.837,0.214-1.092c0.089,1.137,1.674,1.621,1.667,1.721c-0.336-1.229-0.376-2.469-0.12-3.717
			c0.571,0.943,0.819,1.964,0.743,3.062c0.073-1.527,0.106,0.092,0.447,0.003c0.409-0.78,0.906-1.499,1.49-2.159
			c-0.07,0.661,1.848,1.323,2.096,1.969c0.012-0.209,1.366-2.074-0.13-0.664c-0.002-1.387,3.62-4.396,3.026-1.1
			c-2.865-0.05,0.854,0-1.101,0.094c2.222,0.741,3.328-1.071,3.202-0.876c0.571-0.866,2.064-0.583,1.26-1.802
			c0.236,0.891-0.978-0.048-0.597,0.889c-0.87-1.521-1.503-0.765-2.056,0.342c-0.699-0.92-11.793-1.534-12.877-0.955
			c-0.033,0.311-0.123,0.604-0.27,0.881c-0.146-0.837-2.607,0.709-2.59,0.674c-0.326-0.484-7.233-0.842-6.514-1.86
			c-0.494,0.582-0.916,1.213-1.264,1.892c0.209,0.563-7.592,0.022-5.698-1.66c-0.694,0.042-7.317,0.406-7.749,1.285
			c-0.376-0.33-7.865-0.777-5.924,1.232c-1.483,0.562-3.801-3.024-5.534-1.347c-0.023-0.035-0.869-0.361-0.335-0.906
			c-0.85,0.399-2.342,0.057-1.817,1.358c-0.928-2.416-2.798,0.566-3.714,0.377c-0.115-0.652-0.445-1.167-0.989-1.545
			c0.284,0.669-1.067,0.155-0.641,1.065c-1.494-0.519-9.686-1.236-9.459-0.168c-0.369-0.285-0.783-0.473-1.242-0.562
			c-4.259,0.41,5.765,4.642,5.07,3.873c-0.532-1.05,1.115-0.304,1.839-0.35c1.907,1.595,5.242-0.435,7.297-0.947
			c-1.211,1.215,1.318,0.867,1.471,1.354c0.269-0.737-0.946-0.687-0.374-1.286c0.762-0.798,1.092,1.894,2.151,1.198
			c0.832-0.546-1.069-1.468,1.086-1.189c-0.17,0.624,0.463,0.981-0.932,1.348c0.19-0.101,1.274,0.185,1.591-0.411
			c-0.086,0.324,0.33,1.791,0.65,0.059c0.808-0.58,0.666,1.205,1.502,1.014c-0.717-0.123,1.477-1.575,1.927-1.325
			c-0.017,0.349-0.019,0.696-0.006,1.045c0.442-0.317,0.862-0.664,1.258-1.039c-0.067,0.549-0.129,0.516-0.21,1.084
			c0.699,0.525,0.916-0.353,1.281-0.71c0.525,0.288,0.541,0.667,0.047,1.136c2.33-0.288,3.338,0.867,4.404-0.9
			C317.043,405.567,315.502,405.93,316.918,405.396C316.91,405.443,317.722,405.092,316.918,405.396z M322.059,405.084
			c-0.1,0.101-0.299,0.413-0.371,0.129C321.801,404.66,321.889,404.925,322.059,405.084z M329.873,403.923
			c-0.074,0.159-0.189,0.08-0.318-0.103C329.648,403.78,329.754,403.799,329.873,403.923z M351.641,400.563l-0.01,0.023
			C351.408,400.399,351.486,400.474,351.641,400.563z M352.103,400.772C352.535,400.154,351.558,401.201,352.103,400.772
			C352.148,400.706,351.965,400.881,352.103,400.772z M302.554,400.963l0.09,0.126C302.441,401.228,302.498,401.103,302.554,400.963
			z"/>
		<path fill="none" stroke="#000000" stroke-width="0.5" stroke-miterlimit="10" d="M328.986,404.583
			c-0.028-0.082-0.036-0.172-0.043-0.263C328.904,404.401,328.904,404.495,328.986,404.583z"/>
		<path fill="none" stroke="#000000" stroke-width="0.5" stroke-miterlimit="10" d="M313.721,405.649
			C313.711,405.642,313.631,405.845,313.721,405.649C313.715,405.646,313.721,405.649,313.721,405.649z"/>
		<path fill="none" stroke="#000000" stroke-width="0.5" stroke-miterlimit="10" d="M344.955,404.863
			c-0.095-0.069-0.147-0.157-0.184-0.249C344.768,404.732,344.811,404.832,344.955,404.863z"/>
		<path fill="none" stroke="#000000" stroke-width="0.5" stroke-miterlimit="10" d="M354.547,399.953
			C354.074,400.529,354.566,399.951,354.547,399.953C354.547,399.953,354.455,399.961,354.547,399.953z"/>
		<path fill="none" stroke="#000000" stroke-width="0.5" stroke-miterlimit="10" d="M357.113,402.938
			C357.457,402.469,357.029,402.896,357.113,402.938C357.156,402.88,356.922,402.843,357.113,402.938z"/>
		<path fill="none" stroke="#000000" stroke-width="0.5" stroke-miterlimit="10" d="M354.82,401.556
			C354.881,402.596,355.728,400.786,354.82,401.556C354.844,401.962,355.041,401.369,354.82,401.556z"/>
		<path fill="none" stroke="#000000" stroke-width="0.5" stroke-miterlimit="10" d="M355.285,401.735
			c0.063-0.02,0.129-0.029,0.191-0.01C355.5,401.497,355.398,401.678,355.285,401.735z"/>
		<path fill="none" stroke="#000000" stroke-width="0.5" stroke-miterlimit="10" d="M352.688,400.504
			c0.098,0.104,0.062-0.519,0.117-0.354C352.914,399.634,352.15,400.775,352.688,400.504z"/>
		<path fill="none" stroke="#000000" stroke-width="0.5" stroke-miterlimit="10" d="M354.988,402.894
			C354.641,401.871,354.936,402.737,354.988,402.894L354.988,402.894z"/>
		<path fill="none" stroke="#000000" stroke-width="0.5" stroke-miterlimit="10" d="M353.354,402.525
			C354.31,402.655,353.352,402.491,353.354,402.525C353.354,402.525,353.346,402.377,353.354,402.525z"/>
		<path fill="none" stroke="#000000" stroke-width="0.5" stroke-miterlimit="10" d="M353.773,402.493
			c0.105,0.01,0.207-0.001,0.266-0.083C353.982,402.415,353.858,402.433,353.773,402.493z"/>
		<path fill="none" stroke="#000000" stroke-width="0.5" stroke-miterlimit="10" d="M354.537,403.044
			C354.383,402.963,353.856,402.685,354.537,403.044L354.537,403.044z"/>
		<path fill="none" stroke="#000000" stroke-width="0.5" stroke-miterlimit="10" d="M349.798,402.429
			C349.139,403.05,349.852,402.591,349.798,402.429C349.798,402.429,349.854,402.595,349.798,402.429z"/>
		<path fill="none" stroke="#000000" stroke-width="0.5" stroke-miterlimit="10" d="M350.89,403.801
			C350.338,403.211,351.03,403.879,350.89,403.801C350.792,403.696,350.89,403.801,350.89,403.801z"/>
		<path fill="none" stroke="#000000" stroke-width="0.5" stroke-miterlimit="10" d="M349.837,403.946
			c-0.036,0.172-0.524,0.494-0.066,0.455C349.807,404.23,350.169,404.087,349.837,403.946z"/>
		<path fill="none" stroke="#000000" stroke-width="0.5" stroke-miterlimit="10" d="M344.396,403.16
			c0.008-0.068,0.109-0.807,0.079-1.026C344.449,402.476,344.424,402.818,344.396,403.16z"/>
		<path fill="none" stroke="#000000" stroke-width="0.5" stroke-miterlimit="10" d="M339.603,405.597
			C340.561,406.144,339.229,403.489,339.603,405.597C340.03,405.841,339.484,404.927,339.603,405.597z"/>
		<path fill="none" stroke="#000000" stroke-width="0.5" stroke-miterlimit="10" d="M339.878,404.816
			c0.041-0.04,0.085-0.089,0.132-0.155C339.935,404.726,339.899,404.774,339.878,404.816z"/>
		<path fill="none" stroke="#000000" stroke-width="0.5" stroke-miterlimit="10" d="M285.758,400.446
			C285.01,400.153,285.812,400.468,285.758,400.446L285.758,400.446z"/>
		<path fill="none" stroke="#000000" stroke-width="0.5" stroke-miterlimit="10" d="M285.23,401.202
			C284.966,400.269,285.119,400.859,285.23,401.202C285.23,401.202,285.183,401.056,285.23,401.202z"/>
		<path fill="none" stroke="#000000" stroke-width="0.5" stroke-miterlimit="10" d="M322.822,406.392
			C322.748,406.227,322.455,405.566,322.822,406.392L322.822,406.392z"/>
		<path fill="none" stroke="#000000" stroke-width="0.5" stroke-miterlimit="10" d="M319.092,405.905
			C319.068,405.52,319.043,405.094,319.092,405.905L319.092,405.905z"/>
		<path fill="none" stroke="#000000" stroke-width="0.5" stroke-miterlimit="10" d="M315.96,406.654
			c0.128,0.024,0.278-0.106,0.406-0.081C316.088,406.679,315.926,405.923,315.96,406.654z"/>
	</g>
	<g>
		<path fill="none" stroke="#000000" stroke-width="0.5" stroke-miterlimit="10" d="M285.097,409.961
			c-0.122,0.036-0.078-0.382-0.097-0.458C285.205,409.597,285.092,410.069,285.097,409.961z"/>
		<path fill="none" stroke="#000000" stroke-width="0.5" stroke-miterlimit="10" d="M287.12,410.912
			C286.641,410.626,288.051,411.468,287.12,410.912L287.12,410.912z"/>
		<path fill="none" stroke="#000000" stroke-width="0.5" stroke-miterlimit="10" d="M289.012,410.904
			c-0.215,0.857-1.135,0.088-1.23-0.272C289.228,411.451,288.804,411.048,289.012,410.904
			C288.941,411.187,288.723,411.104,289.012,410.904z"/>
		<path fill="none" stroke="#000000" stroke-width="0.5" stroke-miterlimit="10" d="M290.02,409.36
			C289.95,409.675,289.625,409.441,290.02,409.36C289.958,409.638,289.925,409.38,290.02,409.36z"/>
		<path fill="none" stroke="#000000" stroke-width="0.5" stroke-miterlimit="10" d="M289.827,409.377
			C289.628,409.356,289.958,409.144,289.827,409.377L289.827,409.377z"/>
		<path fill="none" stroke="#000000" stroke-width="0.5" stroke-miterlimit="10" d="M290.747,409.536
			C290.45,408.698,290.964,409.154,290.747,409.536C290.747,409.536,290.9,409.267,290.747,409.536z"/>
		<path fill="none" stroke="#000000" stroke-width="0.5" stroke-miterlimit="10" d="M290.996,410.058l-0.136-0.105
			C290.884,409.884,290.92,409.859,290.996,410.058z"/>
		<path fill="none" stroke="#000000" stroke-width="0.5" stroke-miterlimit="10" d="M290.572,409.73
			C290.994,410.202,290.852,410.072,290.572,409.73C290.572,409.73,290.694,409.88,290.572,409.73z"/>
		<path fill="none" stroke="#000000" stroke-width="0.5" stroke-miterlimit="10" d="M290.408,409.839
			c-0.146,0.156-0.337,0.254-0.073,0.5C289.833,410.241,289.906,409.739,290.408,409.839z"/>
		<path fill="none" stroke="#000000" stroke-width="0.5" stroke-miterlimit="10" d="M289.108,411.643
			C288.348,411.791,289.112,411.577,289.108,411.643C289.108,411.643,289.12,411.419,289.108,411.643z"/>
		<path fill="none" stroke="#000000" stroke-width="0.5" stroke-miterlimit="10" d="M292.382,409.167
			C292.448,409.768,292.336,409.972,292.382,409.167C292.398,409.318,292.369,409.392,292.382,409.167z"/>
		<path fill="none" stroke="#000000" stroke-width="0.5" stroke-miterlimit="10" d="M292.274,409.766l0.29,0.261
			C292.306,410.058,292.258,409.933,292.274,409.766z"/>
		<path fill="none" stroke="#000000" stroke-width="0.5" stroke-miterlimit="10" d="M291.043,410.85
			C290.334,409.978,290.827,410.583,291.043,410.85L291.043,410.85z"/>
		<path fill="none" stroke="#000000" stroke-width="0.5" stroke-miterlimit="10" d="M293.49,409.147
			C293.127,407.93,293.72,409.919,293.49,409.147L293.49,409.147z"/>
		<path fill="none" stroke="#000000" stroke-width="0.5" stroke-miterlimit="10" d="M294.224,409.209
			C293.937,408.521,295.007,408.381,294.224,409.209C294.103,408.918,294.449,408.971,294.224,409.209z"/>
		<path fill="none" stroke="#000000" stroke-width="0.5" stroke-miterlimit="10" d="M295.043,409.392
			c-0.082-0.07-0.166-0.195-0.258-0.328C294.873,409.132,294.958,409.228,295.043,409.392z"/>
		<path fill="none" stroke="#000000" stroke-width="0.5" stroke-miterlimit="10" d="M293.058,409.951
			C293.319,408.885,293.431,409.933,293.058,409.951C293.081,409.859,293.098,409.949,293.058,409.951z"/>
		<path fill="none" stroke="#000000" stroke-width="0.5" stroke-miterlimit="10" d="M293.168,409.958
			C293.226,409.949,293.77,409.868,293.168,409.958C293.168,409.958,293.312,409.937,293.168,409.958z"/>
		<path fill="none" stroke="#000000" stroke-width="0.5" stroke-miterlimit="10" d="M293.029,409.953l0.029-0.002
			C293.047,409.993,293.041,410.007,293.029,409.953z"/>
		<path fill="none" stroke="#000000" stroke-width="0.5" stroke-miterlimit="10" d="M291.803,410.463
			c0.171,0.239,0.526,0.495,0.183,0.859C291.863,411.03,292.06,410.822,291.803,410.463z"/>
		<path fill="none" stroke="#000000" stroke-width="0.5" stroke-miterlimit="10" d="M292.888,410.487
			C292.608,410.385,292.174,410.228,292.888,410.487L292.888,410.487z"/>
		<path fill="none" stroke="#000000" stroke-width="0.5" stroke-miterlimit="10" d="M293.039,410.623
			C292.872,410.354,292.933,410.453,293.039,410.623L293.039,410.623z"/>
		<path fill="none" stroke="#000000" stroke-width="0.5" stroke-miterlimit="10" d="M294.516,409.792
			C295.19,410.73,294.34,409.777,294.516,409.792C294.649,409.978,294.327,409.776,294.516,409.792z"/>
		<path fill="none" stroke="#000000" stroke-width="0.5" stroke-miterlimit="10" d="M293.861,409.91l0.03,0.024
			C293.873,409.971,293.858,409.982,293.861,409.91z"/>
		<path fill="none" stroke="#000000" stroke-width="0.5" stroke-miterlimit="10" d="M296.577,410.021
			C296.521,410.189,296.568,410.037,296.577,410.021C296.569,410.044,296.577,410.021,296.577,410.021z"/>
		<path fill="none" stroke="#000000" stroke-width="0.5" stroke-miterlimit="10" d="M294.398,410.231
			C294.287,410.3,293.906,409.994,294.398,410.231C294.266,410.313,294.44,410.252,294.398,410.231z"/>
		<path fill="none" stroke="#000000" stroke-width="0.5" stroke-miterlimit="10" d="M295.495,409.591
			c-0.069,0.09-0.147,0.166-0.229,0.235C295.333,409.69,295.471,409.479,295.495,409.591z"/>
		<path fill="none" stroke="#000000" stroke-width="0.5" stroke-miterlimit="10" d="M293.935,409.816
			c-0.006-0.007-0.012-0.015-0.02-0.019C293.959,409.706,293.954,409.751,293.935,409.816z"/>
		<path fill="none" stroke="#000000" stroke-width="0.5" stroke-miterlimit="10" d="M293.935,409.816
			C294.396,410.231,293.859,410.087,293.935,409.816C294.003,409.878,293.923,409.858,293.935,409.816z"/>
		<path fill="none" stroke="#000000" stroke-width="0.5" stroke-miterlimit="10" d="M297.068,412.763
			c-0.085-1.431-1.187-0.774-0.517-2.665C296.601,411.057,297.451,412.362,297.068,412.763
			C297.012,411.826,297.166,412.66,297.068,412.763z"/>
		<path fill="none" stroke="#000000" stroke-width="0.5" stroke-miterlimit="10" d="M295.971,410.138
			C296.541,409.688,296.551,409.681,295.971,410.138L295.971,410.138z"/>
		<path fill="none" stroke="#000000" stroke-width="0.5" stroke-miterlimit="10" d="M295.284,410.087
			c0.071,0.36,0.143,0.721,0.214,1.081c-0.378-0.313-0.505-0.713-0.38-1.198C295.094,410.076,295.885,410.194,295.284,410.087
			C295.495,410.42,295.563,410.137,295.284,410.087z"/>
		<path fill="none" stroke="#000000" stroke-width="0.5" stroke-miterlimit="10" d="M292.302,412.249
			c0.019-0.038,0.018-0.068,0.02-0.1C292.359,412.202,292.374,412.237,292.302,412.249z"/>
		<path fill="none" stroke="#000000" stroke-width="0.5" stroke-miterlimit="10" d="M292.546,411.989
			c-0.287-0.412,0.457-0.813,0.291-1.045C291.741,414.895,292.909,411.122,292.546,411.989
			C292.524,411.957,292.706,411.608,292.546,411.989z"/>
		<path fill="none" stroke="#000000" stroke-width="0.5" stroke-miterlimit="10" d="M293.932,411.147
			C294.564,411.898,294.056,411.757,293.932,411.147C293.932,411.147,293.967,411.32,293.932,411.147z"/>
		<path fill="none" stroke="#000000" stroke-width="0.5" stroke-miterlimit="10" d="M296.634,409.806
			C297.054,408.74,296.439,410.3,296.634,409.806L296.634,409.806z"/>
		<path fill="none" stroke="#000000" stroke-width="0.5" stroke-miterlimit="10" d="M297.277,409.86
			C297.404,409.082,297.307,409.676,297.277,409.86L297.277,409.86z"/>
		<path fill="none" stroke="#000000" stroke-width="0.5" stroke-miterlimit="10" d="M333.562,414.771l0.145,0.112
			C333.639,414.849,333.595,414.811,333.562,414.771z"/>
		<path fill="none" stroke="#000000" stroke-width="0.5" stroke-miterlimit="10" d="M332.51,414.798l-0.025-0.195
			C332.533,414.71,332.553,414.789,332.51,414.798z"/>
		<path fill="none" stroke="#000000" stroke-width="0.5" stroke-miterlimit="10" d="M313.068,409.905
			C313.639,408.91,313.418,409.567,313.068,409.905C313.281,409.535,313.166,409.812,313.068,409.905z"/>
		<path fill="none" stroke="#000000" stroke-width="0.5" stroke-miterlimit="10" d="M323.885,412.495
			C323.738,412.808,323.374,411.785,323.885,412.495C323.865,412.537,323.812,412.395,323.885,412.495z"/>
		<path fill="none" stroke="#000000" stroke-width="0.5" stroke-miterlimit="10" d="M324.033,414.29l0.279-0.279
			C324.25,414.108,324.16,414.202,324.033,414.29z"/>
		<path fill="none" stroke="#000000" stroke-width="0.5" stroke-miterlimit="10" d="M339.311,415.23l0.17,0.442
			C339.215,415.67,339.332,415.447,339.311,415.23z"/>
		<path fill="none" stroke="#000000" stroke-width="0.5" stroke-miterlimit="10" d="M303.863,410.021
			c0.183-0.17,0.328-0.241,0.456-0.262C304.099,410.007,303.921,410.381,303.863,410.021z"/>
		<path fill="none" stroke="#000000" stroke-width="0.5" stroke-miterlimit="10" d="M333.148,410.167
			c0.088,0.078,0.127,0.166,0.124,0.264C333.181,410.356,333.129,410.272,333.148,410.167z"/>
		<path fill="none" stroke="#000000" stroke-width="0.5" stroke-miterlimit="10" d="M304.846,409.76
			C304.249,410.588,304.304,408.845,304.846,409.76C304.814,409.804,304.667,409.458,304.846,409.76z"/>
		<path fill="none" stroke="#000000" stroke-width="0.5" stroke-miterlimit="10" d="M360.16,414.871
			c0.016-0.02,0.033-0.028,0.047-0.052C360.212,414.878,360.191,414.881,360.16,414.871z"/>
		<path fill="none" stroke="#000000" stroke-width="0.5" stroke-miterlimit="10" d="M366.234,410.493
			c-0.061-0.027-0.158-0.027-0.25-0.033C366.029,410.431,366.104,410.433,366.234,410.493z"/>
		<path fill="none" stroke="#000000" stroke-width="0.5" stroke-miterlimit="10" d="M299.864,409.671
			C299.728,409.643,299.843,409.623,299.864,409.671L299.864,409.671z"/>
		<path fill="none" stroke="#000000" stroke-width="0.5" stroke-miterlimit="10" d="M299.201,411.387
			c0.029,0.049,0.051,0.11,0.054,0.211C299.244,411.493,299.225,411.427,299.201,411.387z"/>
		<path fill="none" stroke="#000000" stroke-width="0.5" stroke-miterlimit="10" d="M306.205,412.46l0.012-0.002
			C306.176,412.544,306.183,412.527,306.205,412.46z"/>
		<path fill="none" stroke="#000000" stroke-width="0.5" stroke-miterlimit="10" d="M299.659,409.868
			c0.051-0.053,0.11-0.098,0.174-0.129C299.805,409.772,299.752,409.815,299.659,409.868z"/>
		<path fill="none" stroke="#000000" stroke-width="0.5" stroke-miterlimit="10" d="M299.687,409.663
			c-0.048,0.017-0.084,0.029-0.119,0.042C299.55,409.633,299.565,409.587,299.687,409.663z"/>
		<path fill="none" stroke="#000000" stroke-width="0.5" stroke-miterlimit="10" d="M300.054,409.694
			C299.669,409.66,299.872,409.672,300.054,409.694C299.976,409.688,299.961,409.683,300.054,409.694z"/>
		<path fill="none" stroke="#000000" stroke-width="0.5" stroke-miterlimit="10" d="M348.988,413.71
			c0.01-0.014,0.02-0.022,0.029-0.041C349.156,413.849,349.096,413.82,348.988,413.71z"/>
		<path fill="none" stroke="#000000" stroke-width="0.5" stroke-miterlimit="10" d="M316.618,414.41
			C316.605,414.4,316.607,414.334,316.618,414.41C316.611,414.405,316.618,414.41,316.618,414.41z"/>
		<path fill="none" stroke="#000000" stroke-width="0.5" stroke-miterlimit="10" d="M317.108,414.733
			c-0.253-0.655-0.733-0.559-0.323-1.61C316.893,413.66,317,414.196,317.108,414.733z"/>
		<path fill="none" stroke="#000000" stroke-width="0.5" stroke-miterlimit="10" d="M335.676,414.815
			c0.846,0.828,1.338,0.73,1.477-0.293c1.066,1.768,2.074,0.612,4.404,0.9c-0.494-0.469-0.479-0.848,0.047-1.136
			c0.365,0.357,0.582,1.235,1.281,0.71c-0.081-0.568-0.143-0.535-0.21-1.084c0.396,0.375,0.815,0.722,1.258,1.039
			c0.014-0.349,0.012-0.696-0.006-1.045c0.45-0.25,2.644,1.202,1.927,1.325c0.836,0.191,0.693-1.594,1.502-1.014
			c0.32,1.732,0.736,0.266,0.65-0.059c0.316,0.596,1.4,0.311,1.59,0.411c-1.395-0.366-0.761-0.724-0.932-1.348
			c2.156-0.278,0.255,0.644,1.087,1.189c1.06,0.695,1.39-1.996,2.151-1.198c0.572,0.6-0.643,0.549-0.374,1.286
			c0.153-0.486,2.683-0.139,1.471-1.354c2.056,0.513,5.391,2.542,7.298,0.947c0.722,0.046,2.373-0.699,1.839,0.35
			c-0.694,0.771,9.328-3.463,5.069-3.873c-0.459,0.089-0.873,0.276-1.242,0.562c0.228-1.066-7.965-0.351-9.459,0.168
			c0.427-0.91-0.924-0.396-0.641-1.065c-0.543,0.378-0.873,0.893-0.988,1.545c-0.916,0.189-2.786-2.793-3.715-0.377
			c0.525-1.302-0.967-0.959-1.816-1.358c0.533,0.545-0.312,0.871-0.336,0.906c-1.732-1.678-4.05,1.908-5.533,1.347
			c1.812-1.877-4.701-1.699-5.268-1.675c-2.32,0.098-6.328-0.716-8.405-0.843c1.894,1.683-5.907,2.224-5.698,1.66
			c-0.348-0.679-0.77-1.31-1.264-1.892c0.72,1.019-6.188,1.376-6.514,1.86c0.018,0.035-2.443-1.511-2.59-0.674
			c-0.146-0.277-0.236-0.57-0.27-0.881c-1.26-0.673-11.984-0.221-12.876,0.955c-0.553-1.106-1.186-1.863-2.056-0.342
			c0.381-0.937-0.833,0.002-0.596-0.889c-0.805,1.219,0.688,0.936,1.26,1.802c-0.126-0.195,0.98,1.617,3.202,0.876
			c-1.955-0.094,1.765-0.144-1.101-0.094c-0.593-3.296,3.029-0.287,3.027,1.1c-1.496-1.41-0.142,0.455-0.13,0.664
			c0.248-0.646,2.166-1.308,2.095-1.969c0.584,0.66,1.082,1.379,1.491,2.159c0.341,0.089,0.374-1.53,0.447-0.003
			c-0.076-1.099,0.172-2.119,0.743-3.062c0.256,1.248,0.216,2.487-0.12,3.717c-0.007-0.1,1.578-0.584,1.667-1.721
			c0.626,0.255,2.446,2.768,0.214,1.092c0.111,0.908,0.604,1.253,1.476,1.035c-0.206-0.033-1.19-3.774-1.339-4.244
			c0.197,0.315,0.381,0.331,0.551,0.046c0.715,0.954,1.131,2.025,1.246,3.214c0.994-1.992,0.074-1.639,1.186,0.212
			c1.238-0.22,1.268-0.344,1.275-1.306c0.023,1.644,0.343,1.689,0.96,0.137c0.565,2.837,0.417-0.699,0.284-1.727
			c0.63,2.038,2.527,3.624,5.844,2.594c-1.293,0.406-0.866-0.995-1.107-1.619c0.908,0.328,1.847,1.231,2.521,1.905
			c0.826-1.492-0.795-1.552-0.028-2.767c0.679,2.771,1.012,2.418,2.626,2.229c0.803-0.094,2.616,1.825,2.861,1.776
			c0.158-0.875,3.483-1.942,1.452,0.517c1.071-1.293,0.696-1.09,1.193-2.237c0.993,1.288,4.331,0.487,4.397,2.35
			C336.549,415.545,335.447,414.613,335.676,414.815C336.221,414.546,335.826,414.947,335.676,414.815z M331.312,414.713
			c-0.072,0.284-0.271-0.028-0.371-0.129C331.111,414.425,331.199,414.16,331.312,414.713z M323.445,413.32
			c-0.129,0.183-0.244,0.262-0.318,0.103C323.246,413.299,323.352,413.28,323.445,413.32z M301.37,410.087l-0.011-0.023
			C301.513,409.974,301.592,409.899,301.37,410.087z M301.128,410.167C300.52,410.348,301.136,410.135,301.128,410.167
			C301.01,410.202,301.095,410.294,301.128,410.167z M350.355,410.589l0.09-0.126C350.502,410.603,350.559,410.728,350.355,410.589z
			"/>
		<path fill="none" stroke="#000000" stroke-width="0.5" stroke-miterlimit="10" d="M324.014,414.083
			c0.028-0.082,0.036-0.172,0.043-0.263C324.096,413.901,324.096,413.995,324.014,414.083z"/>
		<path fill="none" stroke="#000000" stroke-width="0.5" stroke-miterlimit="10" d="M339.279,415.149
			C339.289,415.142,339.369,415.345,339.279,415.149C339.285,415.146,339.279,415.149,339.279,415.149z"/>
		<path fill="none" stroke="#000000" stroke-width="0.5" stroke-miterlimit="10" d="M308.045,414.363
			c0.095-0.069,0.147-0.157,0.184-0.249C308.232,414.232,308.189,414.332,308.045,414.363z"/>
		<path fill="none" stroke="#000000" stroke-width="0.5" stroke-miterlimit="10" d="M298.453,409.453
			C298.925,410.029,298.434,409.451,298.453,409.453C298.453,409.453,298.545,409.461,298.453,409.453z"/>
		<path fill="none" stroke="#000000" stroke-width="0.5" stroke-miterlimit="10" d="M295.887,412.438
			C295.542,411.969,295.971,412.396,295.887,412.438C295.844,412.38,296.078,412.343,295.887,412.438z"/>
		<path fill="none" stroke="#000000" stroke-width="0.5" stroke-miterlimit="10" d="M298.179,411.056
			C298.119,412.096,297.272,410.286,298.179,411.056C298.156,411.462,297.959,410.869,298.179,411.056z"/>
		<path fill="none" stroke="#000000" stroke-width="0.5" stroke-miterlimit="10" d="M297.715,411.235
			c-0.064-0.02-0.129-0.029-0.191-0.01C297.5,410.997,297.602,411.178,297.715,411.235z"/>
		<path fill="none" stroke="#000000" stroke-width="0.5" stroke-miterlimit="10" d="M300.312,410.004
			c-0.098,0.104-0.062-0.519-0.117-0.354C300.085,409.134,300.85,410.275,300.312,410.004z"/>
		<path fill="none" stroke="#000000" stroke-width="0.5" stroke-miterlimit="10" d="M298.011,412.394
			C298.36,411.371,298.064,412.237,298.011,412.394L298.011,412.394z"/>
		<path fill="none" stroke="#000000" stroke-width="0.5" stroke-miterlimit="10" d="M299.646,412.025
			C298.69,412.155,299.648,411.991,299.646,412.025C299.646,412.025,299.654,411.877,299.646,412.025z"/>
		<path fill="none" stroke="#000000" stroke-width="0.5" stroke-miterlimit="10" d="M299.227,411.993
			c-0.106,0.01-0.207-0.001-0.266-0.083C299.018,411.915,299.142,411.933,299.227,411.993z"/>
		<path fill="none" stroke="#000000" stroke-width="0.5" stroke-miterlimit="10" d="M298.463,412.544
			C298.617,412.463,299.144,412.185,298.463,412.544L298.463,412.544z"/>
		<path fill="none" stroke="#000000" stroke-width="0.5" stroke-miterlimit="10" d="M303.202,411.929
			C303.862,412.55,303.148,412.091,303.202,411.929C303.202,411.929,303.146,412.095,303.202,411.929z"/>
		<path fill="none" stroke="#000000" stroke-width="0.5" stroke-miterlimit="10" d="M302.11,413.301
			C302.662,412.711,301.97,413.379,302.11,413.301C302.208,413.196,302.11,413.301,302.11,413.301z"/>
		<path fill="none" stroke="#000000" stroke-width="0.5" stroke-miterlimit="10" d="M303.163,413.446
			c0.036,0.172,0.524,0.494,0.066,0.455C303.193,413.73,302.831,413.587,303.163,413.446z"/>
		<path fill="none" stroke="#000000" stroke-width="0.5" stroke-miterlimit="10" d="M308.604,412.66
			c-0.008-0.068-0.109-0.807-0.079-1.026C308.551,411.976,308.576,412.318,308.604,412.66z"/>
		<path fill="none" stroke="#000000" stroke-width="0.5" stroke-miterlimit="10" d="M313.397,415.097
			C312.439,415.644,313.771,412.989,313.397,415.097C312.97,415.341,313.516,414.427,313.397,415.097z"/>
		<path fill="none" stroke="#000000" stroke-width="0.5" stroke-miterlimit="10" d="M313.122,414.316
			c-0.041-0.04-0.085-0.089-0.132-0.155C313.065,414.226,313.101,414.274,313.122,414.316z"/>
		<path fill="none" stroke="#000000" stroke-width="0.5" stroke-miterlimit="10" d="M367.242,409.946
			C367.99,409.653,367.188,409.968,367.242,409.946L367.242,409.946z"/>
		<path fill="none" stroke="#000000" stroke-width="0.5" stroke-miterlimit="10" d="M367.77,410.702
			C368.034,409.77,367.882,410.359,367.77,410.702C367.77,410.702,367.817,410.556,367.77,410.702z"/>
		<path fill="none" stroke="#000000" stroke-width="0.5" stroke-miterlimit="10" d="M330.178,415.892
			C330.252,415.727,330.545,415.066,330.178,415.892L330.178,415.892z"/>
		<path fill="none" stroke="#000000" stroke-width="0.5" stroke-miterlimit="10" d="M333.908,415.405
			C333.932,415.02,333.957,414.594,333.908,415.405L333.908,415.405z"/>
		<path fill="none" stroke="#000000" stroke-width="0.5" stroke-miterlimit="10" d="M337.04,416.154
			c-0.128,0.024-0.278-0.106-0.406-0.081C336.912,416.179,337.074,415.423,337.04,416.154z"/>
	</g>
	<g>
		<path fill="none" stroke="#000000" stroke-width="0.5" stroke-miterlimit="10" d="M367.903,421.599
			c0.122,0.036,0.078-0.382,0.097-0.458C367.795,421.234,367.908,421.707,367.903,421.599z"/>
		<path fill="none" stroke="#000000" stroke-width="0.5" stroke-miterlimit="10" d="M365.88,422.55
			C366.359,422.264,364.948,423.105,365.88,422.55L365.88,422.55z"/>
		<path fill="none" stroke="#000000" stroke-width="0.5" stroke-miterlimit="10" d="M363.988,422.542
			c0.214,0.857,1.135,0.088,1.23-0.272C363.773,423.09,364.196,422.686,363.988,422.542
			C364.059,422.824,364.277,422.741,363.988,422.542z"/>
		<path fill="none" stroke="#000000" stroke-width="0.5" stroke-miterlimit="10" d="M362.98,420.998
			C363.051,421.312,363.376,421.079,362.98,420.998C363.042,421.275,363.075,421.018,362.98,420.998z"/>
		<path fill="none" stroke="#000000" stroke-width="0.5" stroke-miterlimit="10" d="M363.173,421.015
			C363.372,420.994,363.042,420.781,363.173,421.015L363.173,421.015z"/>
		<path fill="none" stroke="#000000" stroke-width="0.5" stroke-miterlimit="10" d="M362.253,421.174
			C362.55,420.336,362.036,420.792,362.253,421.174C362.253,421.174,362.1,420.904,362.253,421.174z"/>
		<path fill="none" stroke="#000000" stroke-width="0.5" stroke-miterlimit="10" d="M362.004,421.695l0.136-0.105
			C362.116,421.521,362.08,421.497,362.004,421.695z"/>
		<path fill="none" stroke="#000000" stroke-width="0.5" stroke-miterlimit="10" d="M362.428,421.368
			C362.006,421.84,362.148,421.71,362.428,421.368C362.428,421.368,362.306,421.518,362.428,421.368z"/>
		<path fill="none" stroke="#000000" stroke-width="0.5" stroke-miterlimit="10" d="M362.592,421.477
			c0.146,0.156,0.337,0.254,0.073,0.5C363.167,421.879,363.094,421.377,362.592,421.477z"/>
		<path fill="none" stroke="#000000" stroke-width="0.5" stroke-miterlimit="10" d="M363.892,423.28
			C364.651,423.429,363.888,423.215,363.892,423.28C363.892,423.28,363.88,423.057,363.892,423.28z"/>
		<path fill="none" stroke="#000000" stroke-width="0.5" stroke-miterlimit="10" d="M360.618,420.805
			C360.553,421.405,360.664,421.608,360.618,420.805C360.602,420.956,360.631,421.029,360.618,420.805z"/>
		<path fill="none" stroke="#000000" stroke-width="0.5" stroke-miterlimit="10" d="M360.726,421.403l-0.29,0.261
			C360.694,421.695,360.742,421.57,360.726,421.403z"/>
		<path fill="none" stroke="#000000" stroke-width="0.5" stroke-miterlimit="10" d="M361.957,422.487
			C362.666,421.615,362.174,422.221,361.957,422.487L361.957,422.487z"/>
		<path fill="none" stroke="#000000" stroke-width="0.5" stroke-miterlimit="10" d="M359.51,420.785
			C359.873,419.567,359.28,421.557,359.51,420.785L359.51,420.785z"/>
		<path fill="none" stroke="#000000" stroke-width="0.5" stroke-miterlimit="10" d="M358.775,420.847
			C359.062,420.159,357.993,420.019,358.775,420.847C358.897,420.556,358.551,420.608,358.775,420.847z"/>
		<path fill="none" stroke="#000000" stroke-width="0.5" stroke-miterlimit="10" d="M357.957,421.029
			c0.081-0.07,0.166-0.195,0.258-0.328C358.127,420.77,358.043,420.865,357.957,421.029z"/>
		<path fill="none" stroke="#000000" stroke-width="0.5" stroke-miterlimit="10" d="M359.941,421.589
			C359.682,420.522,359.568,421.57,359.941,421.589C359.92,421.497,359.902,421.587,359.941,421.589z"/>
		<path fill="none" stroke="#000000" stroke-width="0.5" stroke-miterlimit="10" d="M359.832,421.596
			C359.773,421.587,359.23,421.506,359.832,421.596C359.832,421.596,359.688,421.574,359.832,421.596z"/>
		<path fill="none" stroke="#000000" stroke-width="0.5" stroke-miterlimit="10" d="M359.971,421.591l-0.029-0.002
			C359.953,421.631,359.959,421.645,359.971,421.591z"/>
		<path fill="none" stroke="#000000" stroke-width="0.5" stroke-miterlimit="10" d="M361.197,422.101
			c-0.171,0.239-0.526,0.495-0.183,0.859C361.137,422.668,360.94,422.46,361.197,422.101z"/>
		<path fill="none" stroke="#000000" stroke-width="0.5" stroke-miterlimit="10" d="M360.112,422.125
			C360.393,422.022,360.825,421.865,360.112,422.125L360.112,422.125z"/>
		<path fill="none" stroke="#000000" stroke-width="0.5" stroke-miterlimit="10" d="M359.961,422.261
			C360.129,421.992,360.067,422.091,359.961,422.261L359.961,422.261z"/>
		<path fill="none" stroke="#000000" stroke-width="0.5" stroke-miterlimit="10" d="M358.484,421.43
			C357.811,422.368,358.66,421.415,358.484,421.43C358.352,421.615,358.673,421.414,358.484,421.43z"/>
		<path fill="none" stroke="#000000" stroke-width="0.5" stroke-miterlimit="10" d="M359.139,421.548l-0.029,0.024
			C359.127,421.608,359.143,421.62,359.139,421.548z"/>
		<path fill="none" stroke="#000000" stroke-width="0.5" stroke-miterlimit="10" d="M356.423,421.658
			C356.479,421.827,356.432,421.675,356.423,421.658C356.431,421.682,356.423,421.658,356.423,421.658z"/>
		<path fill="none" stroke="#000000" stroke-width="0.5" stroke-miterlimit="10" d="M358.602,421.869
			C358.713,421.938,359.094,421.632,358.602,421.869C358.734,421.951,358.56,421.89,358.602,421.869z"/>
		<path fill="none" stroke="#000000" stroke-width="0.5" stroke-miterlimit="10" d="M357.505,421.229
			c0.069,0.09,0.147,0.166,0.229,0.235C357.667,421.328,357.529,421.117,357.505,421.229z"/>
		<path fill="none" stroke="#000000" stroke-width="0.5" stroke-miterlimit="10" d="M359.064,421.454
			c0.007-0.007,0.013-0.015,0.02-0.019C359.041,421.344,359.047,421.389,359.064,421.454z"/>
		<path fill="none" stroke="#000000" stroke-width="0.5" stroke-miterlimit="10" d="M359.064,421.454
			C358.604,421.869,359.141,421.725,359.064,421.454C358.996,421.516,359.076,421.496,359.064,421.454z"/>
		<path fill="none" stroke="#000000" stroke-width="0.5" stroke-miterlimit="10" d="M355.932,424.4
			c0.086-1.431,1.188-0.774,0.518-2.665C356.398,422.694,355.549,424,355.932,424.4C355.988,423.464,355.834,424.298,355.932,424.4z
			"/>
		<path fill="none" stroke="#000000" stroke-width="0.5" stroke-miterlimit="10" d="M357.029,421.775
			C356.459,421.326,356.449,421.318,357.029,421.775L357.029,421.775z"/>
		<path fill="none" stroke="#000000" stroke-width="0.5" stroke-miterlimit="10" d="M357.717,421.725
			c-0.072,0.36-0.144,0.721-0.215,1.081c0.379-0.313,0.506-0.713,0.381-1.198C357.906,421.713,357.115,421.832,357.717,421.725
			C357.506,422.058,357.438,421.774,357.717,421.725z"/>
		<path fill="none" stroke="#000000" stroke-width="0.5" stroke-miterlimit="10" d="M360.698,423.887
			c-0.019-0.038-0.018-0.068-0.02-0.1C360.641,423.84,360.626,423.875,360.698,423.887z"/>
		<path fill="none" stroke="#000000" stroke-width="0.5" stroke-miterlimit="10" d="M360.453,423.627
			c0.287-0.412-0.456-0.813-0.29-1.045C361.259,426.532,360.092,422.76,360.453,423.627
			C360.477,423.595,360.295,423.246,360.453,423.627z"/>
		<path fill="none" stroke="#000000" stroke-width="0.5" stroke-miterlimit="10" d="M359.068,422.785
			C358.436,423.536,358.943,423.396,359.068,422.785C359.068,422.785,359.033,422.958,359.068,422.785z"/>
		<path fill="none" stroke="#000000" stroke-width="0.5" stroke-miterlimit="10" d="M356.366,421.443
			C355.946,420.378,356.561,421.938,356.366,421.443L356.366,421.443z"/>
		<path fill="none" stroke="#000000" stroke-width="0.5" stroke-miterlimit="10" d="M355.723,421.498
			C355.596,420.72,355.693,421.313,355.723,421.498L355.723,421.498z"/>
		<path fill="none" stroke="#000000" stroke-width="0.5" stroke-miterlimit="10" d="M319.438,426.408l-0.145,0.112
			C319.361,426.486,319.405,426.448,319.438,426.408z"/>
		<path fill="none" stroke="#000000" stroke-width="0.5" stroke-miterlimit="10" d="M320.49,426.436l0.025-0.195
			C320.467,426.348,320.447,426.427,320.49,426.436z"/>
		<path fill="none" stroke="#000000" stroke-width="0.5" stroke-miterlimit="10" d="M339.932,421.543
			C339.361,420.548,339.582,421.205,339.932,421.543C339.719,421.173,339.834,421.449,339.932,421.543z"/>
		<path fill="none" stroke="#000000" stroke-width="0.5" stroke-miterlimit="10" d="M329.115,424.133
			C329.262,424.445,329.626,423.423,329.115,424.133C329.135,424.175,329.188,424.032,329.115,424.133z"/>
		<path fill="none" stroke="#000000" stroke-width="0.5" stroke-miterlimit="10" d="M328.967,425.928l-0.279-0.279
			C328.75,425.746,328.84,425.84,328.967,425.928z"/>
		<path fill="none" stroke="#000000" stroke-width="0.5" stroke-miterlimit="10" d="M313.689,426.868l-0.17,0.442
			C313.785,427.308,313.668,427.085,313.689,426.868z"/>
		<path fill="none" stroke="#000000" stroke-width="0.5" stroke-miterlimit="10" d="M349.137,421.658
			c-0.182-0.17-0.328-0.241-0.455-0.262C348.901,421.645,349.079,422.019,349.137,421.658z"/>
		<path fill="none" stroke="#000000" stroke-width="0.5" stroke-miterlimit="10" d="M319.852,421.805
			c-0.088,0.078-0.127,0.166-0.124,0.264C319.819,421.994,319.871,421.91,319.852,421.805z"/>
		<path fill="none" stroke="#000000" stroke-width="0.5" stroke-miterlimit="10" d="M348.154,421.397
			C348.752,422.226,348.695,420.482,348.154,421.397C348.186,421.441,348.332,421.096,348.154,421.397z"/>
		<path fill="none" stroke="#000000" stroke-width="0.5" stroke-miterlimit="10" d="M292.84,426.509
			c-0.015-0.02-0.033-0.028-0.047-0.052C292.788,426.516,292.809,426.519,292.84,426.509z"/>
		<path fill="none" stroke="#000000" stroke-width="0.5" stroke-miterlimit="10" d="M286.766,422.131
			c0.06-0.027,0.157-0.027,0.25-0.033C286.971,422.068,286.896,422.07,286.766,422.131z"/>
		<path fill="none" stroke="#000000" stroke-width="0.5" stroke-miterlimit="10" d="M353.136,421.309
			C353.271,421.28,353.157,421.261,353.136,421.309L353.136,421.309z"/>
		<path fill="none" stroke="#000000" stroke-width="0.5" stroke-miterlimit="10" d="M353.799,423.024
			c-0.029,0.049-0.051,0.11-0.055,0.211C353.756,423.131,353.775,423.064,353.799,423.024z"/>
		<path fill="none" stroke="#000000" stroke-width="0.5" stroke-miterlimit="10" d="M346.795,424.098l-0.012-0.002
			C346.824,424.182,346.816,424.165,346.795,424.098z"/>
		<path fill="none" stroke="#000000" stroke-width="0.5" stroke-miterlimit="10" d="M353.341,421.506
			c-0.051-0.053-0.11-0.098-0.175-0.129C353.195,421.41,353.248,421.453,353.341,421.506z"/>
		<path fill="none" stroke="#000000" stroke-width="0.5" stroke-miterlimit="10" d="M353.313,421.301
			c0.048,0.017,0.084,0.029,0.119,0.042C353.449,421.271,353.435,421.225,353.313,421.301z"/>
		<path fill="none" stroke="#000000" stroke-width="0.5" stroke-miterlimit="10" d="M352.945,421.332
			C353.331,421.298,353.128,421.31,352.945,421.332C353.023,421.325,353.039,421.32,352.945,421.332z"/>
		<path fill="none" stroke="#000000" stroke-width="0.5" stroke-miterlimit="10" d="M304.011,425.348
			c-0.009-0.014-0.02-0.022-0.029-0.041C303.844,425.486,303.905,425.458,304.011,425.348z"/>
		<path fill="none" stroke="#000000" stroke-width="0.5" stroke-miterlimit="10" d="M336.382,426.048
			C336.395,426.038,336.393,425.972,336.382,426.048C336.389,426.043,336.382,426.048,336.382,426.048z"/>
		<path fill="none" stroke="#000000" stroke-width="0.5" stroke-miterlimit="10" d="M335.892,426.371
			c0.253-0.655,0.733-0.559,0.323-1.61C336.107,425.298,336,425.834,335.892,426.371z"/>
		<path fill="none" stroke="#000000" stroke-width="0.5" stroke-miterlimit="10" d="M316.918,426.533
			c-0.081,0.45-0.098,0.903-0.049,1.358c0.066-1.863,3.404-1.062,4.397-2.35c0.497,1.147,0.122,0.944,1.193,2.237
			c-2.032-2.459,1.294-1.392,1.452-0.517c0.245,0.049,2.059-1.87,2.861-1.775c1.614,0.188,1.947,0.542,2.626-2.229
			c0.767,1.215-0.854,1.274-0.028,2.767c0.675-0.674,1.613-1.577,2.521-1.905c-0.241,0.624,0.186,2.025-1.107,1.619
			c3.316,1.03,5.214-0.556,5.844-2.594c-0.133,1.027-0.281,4.563,0.284,1.727c0.617,1.553,0.937,1.507,0.96-0.137
			c0.025,3.089-0.551-1.501,0.619,1.396c1.902-0.938,0.62-2.752,1.842-0.303c0.115-1.188,0.531-2.26,1.246-3.214
			c0.17,0.285,0.354,0.27,0.551-0.046c-0.148,0.47-1.133,4.211-1.339,4.244c0.872,0.218,1.364-0.127,1.476-1.035
			c-2.232,1.676-0.412-0.837,0.214-1.092c0.089,1.136,1.674,1.621,1.667,1.721c-0.336-1.229-0.376-2.468-0.12-3.717
			c0.571,0.943,0.819,1.964,0.743,3.062c0.073-1.527,0.106,0.092,0.447,0.003c0.409-0.779,0.906-1.5,1.49-2.159
			c-0.07,0.661,1.848,1.323,2.096,1.969c0.012-0.209,1.366-2.074-0.13-0.664c-0.002-1.387,3.62-4.396,3.026-1.1
			c-2.865-0.05,0.854,0-1.101,0.094c2.222,0.741,3.328-1.071,3.202-0.876c0.571-0.866,2.064-0.583,1.26-1.802
			c0.236,0.891-0.978-0.048-0.597,0.889c-0.87-1.521-1.503-0.765-2.056,0.342c-0.699-0.92-11.793-1.534-12.877-0.955
			c-0.033,0.311-0.123,0.604-0.27,0.881c-0.146-0.837-2.607,0.709-2.59,0.674c-0.326-0.484-7.233-0.842-6.514-1.86
			c-0.494,0.582-0.916,1.213-1.264,1.892c0.209,0.563-7.592,0.022-5.698-1.66c-0.694,0.042-7.317,0.406-7.749,1.285
			c-0.376-0.33-7.865-0.777-5.924,1.232c-1.483,0.562-3.801-3.024-5.534-1.347c-0.023-0.035-0.869-0.361-0.335-0.906
			c-0.85,0.399-2.342,0.057-1.817,1.358c-0.928-2.415-2.798,0.566-3.714,0.377c-0.115-0.652-0.445-1.167-0.989-1.545
			c0.284,0.669-1.067,0.155-0.641,1.065c-1.494-0.518-9.686-1.237-9.459-0.168c-0.369-0.285-0.783-0.473-1.242-0.562
			c-4.259,0.41,5.765,4.642,5.07,3.873c-0.532-1.05,1.115-0.304,1.839-0.35c1.907,1.595,5.242-0.435,7.297-0.947
			c-1.211,1.215,1.318,0.867,1.471,1.354c0.269-0.737-0.946-0.687-0.374-1.286c0.762-0.798,1.092,1.894,2.151,1.199
			c0.832-0.547-1.069-1.469,1.086-1.19c-0.17,0.624,0.463,0.981-0.932,1.348c0.19-0.101,1.274,0.185,1.591-0.411
			c-0.086,0.324,0.33,1.791,0.65,0.059c0.808-0.58,0.666,1.205,1.502,1.014c-0.717-0.123,1.477-1.575,1.927-1.325
			c-0.017,0.349-0.019,0.696-0.006,1.045c0.442-0.317,0.862-0.664,1.258-1.039c-0.067,0.548-0.129,0.516-0.21,1.084
			c0.699,0.525,0.916-0.353,1.281-0.71c0.525,0.288,0.541,0.667,0.047,1.136c2.33-0.288,3.338,0.867,4.404-0.9
			C317.043,426.706,315.502,427.067,316.918,426.533C316.91,426.581,317.722,426.229,316.918,426.533z M322.059,426.222
			c-0.1,0.101-0.299,0.413-0.371,0.129C321.801,425.798,321.889,426.062,322.059,426.222z M329.873,425.061
			c-0.074,0.159-0.189,0.08-0.318-0.103C329.648,424.918,329.754,424.937,329.873,425.061z M351.641,421.701l-0.01,0.023
			C351.408,421.537,351.486,421.611,351.641,421.701z M352.103,421.91C352.535,421.292,351.558,422.339,352.103,421.91
			C352.148,421.844,351.965,422.019,352.103,421.91z M302.554,422.101l0.09,0.126C302.441,422.365,302.498,422.24,302.554,422.101z"
			/>
		<path fill="none" stroke="#000000" stroke-width="0.5" stroke-miterlimit="10" d="M328.986,425.721
			c-0.028-0.082-0.036-0.172-0.043-0.263C328.904,425.539,328.904,425.633,328.986,425.721z"/>
		<path fill="none" stroke="#000000" stroke-width="0.5" stroke-miterlimit="10" d="M313.721,426.787
			C313.711,426.779,313.631,426.983,313.721,426.787C313.715,426.783,313.721,426.787,313.721,426.787z"/>
		<path fill="none" stroke="#000000" stroke-width="0.5" stroke-miterlimit="10" d="M344.955,426.001
			c-0.095-0.069-0.147-0.157-0.184-0.249C344.768,425.87,344.811,425.97,344.955,426.001z"/>
		<path fill="none" stroke="#000000" stroke-width="0.5" stroke-miterlimit="10" d="M354.547,421.091
			C354.074,421.667,354.566,421.089,354.547,421.091C354.547,421.091,354.455,421.099,354.547,421.091z"/>
		<path fill="none" stroke="#000000" stroke-width="0.5" stroke-miterlimit="10" d="M357.113,424.076
			C357.457,423.606,357.029,424.034,357.113,424.076C357.156,424.018,356.922,423.98,357.113,424.076z"/>
		<path fill="none" stroke="#000000" stroke-width="0.5" stroke-miterlimit="10" d="M354.82,422.693
			C354.881,423.733,355.728,421.924,354.82,422.693C354.844,423.1,355.041,422.507,354.82,422.693z"/>
		<path fill="none" stroke="#000000" stroke-width="0.5" stroke-miterlimit="10" d="M355.285,422.873
			c0.063-0.02,0.129-0.029,0.191-0.01C355.5,422.635,355.398,422.815,355.285,422.873z"/>
		<path fill="none" stroke="#000000" stroke-width="0.5" stroke-miterlimit="10" d="M352.688,421.642
			c0.098,0.104,0.062-0.519,0.117-0.354C352.914,420.771,352.15,421.913,352.688,421.642z"/>
		<path fill="none" stroke="#000000" stroke-width="0.5" stroke-miterlimit="10" d="M354.988,424.031
			C354.641,423.009,354.936,423.875,354.988,424.031L354.988,424.031z"/>
		<path fill="none" stroke="#000000" stroke-width="0.5" stroke-miterlimit="10" d="M353.354,423.663
			C354.31,423.792,353.352,423.628,353.354,423.663C353.354,423.663,353.346,423.515,353.354,423.663z"/>
		<path fill="none" stroke="#000000" stroke-width="0.5" stroke-miterlimit="10" d="M353.773,423.631
			c0.105,0.01,0.207-0.001,0.266-0.083C353.982,423.553,353.858,423.57,353.773,423.631z"/>
		<path fill="none" stroke="#000000" stroke-width="0.5" stroke-miterlimit="10" d="M354.537,424.182
			C354.383,424.101,353.856,423.822,354.537,424.182L354.537,424.182z"/>
		<path fill="none" stroke="#000000" stroke-width="0.5" stroke-miterlimit="10" d="M349.798,423.566
			C349.139,424.188,349.852,423.729,349.798,423.566C349.798,423.566,349.854,423.732,349.798,423.566z"/>
		<path fill="none" stroke="#000000" stroke-width="0.5" stroke-miterlimit="10" d="M350.89,424.938
			C350.338,424.349,351.03,425.017,350.89,424.938C350.792,424.834,350.89,424.938,350.89,424.938z"/>
		<path fill="none" stroke="#000000" stroke-width="0.5" stroke-miterlimit="10" d="M349.837,425.084
			c-0.036,0.172-0.524,0.494-0.066,0.455C349.807,425.368,350.169,425.225,349.837,425.084z"/>
		<path fill="none" stroke="#000000" stroke-width="0.5" stroke-miterlimit="10" d="M344.396,424.298
			c0.008-0.068,0.109-0.807,0.079-1.026C344.449,423.613,344.424,423.956,344.396,424.298z"/>
		<path fill="none" stroke="#000000" stroke-width="0.5" stroke-miterlimit="10" d="M339.603,426.734
			C340.561,427.281,339.229,424.627,339.603,426.734C340.03,426.979,339.484,426.064,339.603,426.734z"/>
		<path fill="none" stroke="#000000" stroke-width="0.5" stroke-miterlimit="10" d="M339.878,425.954
			c0.041-0.04,0.085-0.089,0.132-0.155C339.935,425.863,339.899,425.912,339.878,425.954z"/>
		<path fill="none" stroke="#000000" stroke-width="0.5" stroke-miterlimit="10" d="M285.758,421.584
			C285.01,421.291,285.812,421.605,285.758,421.584L285.758,421.584z"/>
		<path fill="none" stroke="#000000" stroke-width="0.5" stroke-miterlimit="10" d="M285.23,422.34
			C284.966,421.406,285.119,421.997,285.23,422.34C285.23,422.34,285.183,422.193,285.23,422.34z"/>
		<path fill="none" stroke="#000000" stroke-width="0.5" stroke-miterlimit="10" d="M322.822,427.529
			C322.748,427.364,322.455,426.704,322.822,427.529L322.822,427.529z"/>
		<path fill="none" stroke="#000000" stroke-width="0.5" stroke-miterlimit="10" d="M319.092,427.043
			C319.068,426.657,319.043,426.231,319.092,427.043L319.092,427.043z"/>
		<path fill="none" stroke="#000000" stroke-width="0.5" stroke-miterlimit="10" d="M315.96,427.792
			c0.128,0.024,0.278-0.106,0.406-0.081C316.088,427.816,315.926,427.061,315.96,427.792z"/>
	</g>
	<g>
		<path fill="none" stroke="#000000" stroke-width="0.5" stroke-miterlimit="10" d="M367.903,442.046
			c0.122,0.036,0.078-0.382,0.097-0.458C367.795,441.682,367.908,442.154,367.903,442.046z"/>
		<path fill="none" stroke="#000000" stroke-width="0.5" stroke-miterlimit="10" d="M365.88,442.997
			C366.359,442.711,364.948,443.553,365.88,442.997L365.88,442.997z"/>
		<path fill="none" stroke="#000000" stroke-width="0.5" stroke-miterlimit="10" d="M363.988,442.989
			c0.214,0.857,1.135,0.088,1.23-0.272C363.773,443.537,364.196,443.133,363.988,442.989
			C364.059,443.271,364.277,443.188,363.988,442.989z"/>
		<path fill="none" stroke="#000000" stroke-width="0.5" stroke-miterlimit="10" d="M362.98,441.445
			C363.051,441.76,363.376,441.526,362.98,441.445C363.042,441.723,363.075,441.465,362.98,441.445z"/>
		<path fill="none" stroke="#000000" stroke-width="0.5" stroke-miterlimit="10" d="M363.173,441.462
			C363.372,441.441,363.042,441.229,363.173,441.462L363.173,441.462z"/>
		<path fill="none" stroke="#000000" stroke-width="0.5" stroke-miterlimit="10" d="M362.253,441.621
			C362.55,440.783,362.036,441.239,362.253,441.621C362.253,441.621,362.1,441.352,362.253,441.621z"/>
		<path fill="none" stroke="#000000" stroke-width="0.5" stroke-miterlimit="10" d="M362.004,442.143l0.136-0.105
			C362.116,441.969,362.08,441.944,362.004,442.143z"/>
		<path fill="none" stroke="#000000" stroke-width="0.5" stroke-miterlimit="10" d="M362.428,441.815
			C362.006,442.287,362.148,442.157,362.428,441.815C362.428,441.815,362.306,441.965,362.428,441.815z"/>
		<path fill="none" stroke="#000000" stroke-width="0.5" stroke-miterlimit="10" d="M362.592,441.924
			c0.146,0.156,0.337,0.254,0.073,0.5C363.167,442.326,363.094,441.824,362.592,441.924z"/>
		<path fill="none" stroke="#000000" stroke-width="0.5" stroke-miterlimit="10" d="M363.892,443.728
			C364.651,443.876,363.888,443.662,363.892,443.728C363.892,443.728,363.88,443.504,363.892,443.728z"/>
		<path fill="none" stroke="#000000" stroke-width="0.5" stroke-miterlimit="10" d="M360.618,441.252
			C360.553,441.853,360.664,442.056,360.618,441.252C360.602,441.403,360.631,441.477,360.618,441.252z"/>
		<path fill="none" stroke="#000000" stroke-width="0.5" stroke-miterlimit="10" d="M360.726,441.851l-0.29,0.261
			C360.694,442.143,360.742,442.018,360.726,441.851z"/>
		<path fill="none" stroke="#000000" stroke-width="0.5" stroke-miterlimit="10" d="M361.957,442.935
			C362.666,442.062,362.174,442.668,361.957,442.935L361.957,442.935z"/>
		<path fill="none" stroke="#000000" stroke-width="0.5" stroke-miterlimit="10" d="M359.51,441.232
			C359.873,440.015,359.28,442.004,359.51,441.232L359.51,441.232z"/>
		<path fill="none" stroke="#000000" stroke-width="0.5" stroke-miterlimit="10" d="M358.775,441.294
			C359.062,440.606,357.993,440.466,358.775,441.294C358.897,441.003,358.551,441.056,358.775,441.294z"/>
		<path fill="none" stroke="#000000" stroke-width="0.5" stroke-miterlimit="10" d="M357.957,441.477
			c0.081-0.07,0.166-0.195,0.258-0.328C358.127,441.217,358.043,441.312,357.957,441.477z"/>
		<path fill="none" stroke="#000000" stroke-width="0.5" stroke-miterlimit="10" d="M359.941,442.036
			C359.682,440.97,359.568,442.018,359.941,442.036C359.92,441.944,359.902,442.034,359.941,442.036z"/>
		<path fill="none" stroke="#000000" stroke-width="0.5" stroke-miterlimit="10" d="M359.832,442.043
			C359.773,442.034,359.23,441.953,359.832,442.043C359.832,442.043,359.688,442.021,359.832,442.043z"/>
		<path fill="none" stroke="#000000" stroke-width="0.5" stroke-miterlimit="10" d="M359.971,442.038l-0.029-0.002
			C359.953,442.078,359.959,442.092,359.971,442.038z"/>
		<path fill="none" stroke="#000000" stroke-width="0.5" stroke-miterlimit="10" d="M361.197,442.548
			c-0.171,0.239-0.526,0.495-0.183,0.859C361.137,443.115,360.94,442.907,361.197,442.548z"/>
		<path fill="none" stroke="#000000" stroke-width="0.5" stroke-miterlimit="10" d="M360.112,442.572
			C360.393,442.47,360.825,442.312,360.112,442.572L360.112,442.572z"/>
		<path fill="none" stroke="#000000" stroke-width="0.5" stroke-miterlimit="10" d="M359.961,442.708
			C360.129,442.439,360.067,442.538,359.961,442.708L359.961,442.708z"/>
		<path fill="none" stroke="#000000" stroke-width="0.5" stroke-miterlimit="10" d="M358.484,441.877
			C357.811,442.815,358.66,441.862,358.484,441.877C358.352,442.062,358.673,441.861,358.484,441.877z"/>
		<path fill="none" stroke="#000000" stroke-width="0.5" stroke-miterlimit="10" d="M359.139,441.995l-0.029,0.024
			C359.127,442.056,359.143,442.067,359.139,441.995z"/>
		<path fill="none" stroke="#000000" stroke-width="0.5" stroke-miterlimit="10" d="M356.423,442.105
			C356.479,442.274,356.432,442.122,356.423,442.105C356.431,442.129,356.423,442.105,356.423,442.105z"/>
		<path fill="none" stroke="#000000" stroke-width="0.5" stroke-miterlimit="10" d="M358.602,442.316
			C358.713,442.385,359.094,442.079,358.602,442.316C358.734,442.398,358.56,442.337,358.602,442.316z"/>
		<path fill="none" stroke="#000000" stroke-width="0.5" stroke-miterlimit="10" d="M357.505,441.676
			c0.069,0.09,0.147,0.166,0.229,0.235C357.667,441.775,357.529,441.564,357.505,441.676z"/>
		<path fill="none" stroke="#000000" stroke-width="0.5" stroke-miterlimit="10" d="M359.064,441.901
			c0.007-0.007,0.013-0.015,0.02-0.019C359.041,441.791,359.047,441.836,359.064,441.901z"/>
		<path fill="none" stroke="#000000" stroke-width="0.5" stroke-miterlimit="10" d="M359.064,441.901
			C358.604,442.316,359.141,442.172,359.064,441.901C358.996,441.963,359.076,441.943,359.064,441.901z"/>
		<path fill="none" stroke="#000000" stroke-width="0.5" stroke-miterlimit="10" d="M355.932,444.848
			c0.086-1.431,1.188-0.774,0.518-2.665C356.398,443.142,355.549,444.447,355.932,444.848
			C355.988,443.911,355.834,444.745,355.932,444.848z"/>
		<path fill="none" stroke="#000000" stroke-width="0.5" stroke-miterlimit="10" d="M357.029,442.223
			C356.459,441.773,356.449,441.766,357.029,442.223L357.029,442.223z"/>
		<path fill="none" stroke="#000000" stroke-width="0.5" stroke-miterlimit="10" d="M357.717,442.172
			c-0.072,0.36-0.144,0.721-0.215,1.081c0.379-0.313,0.506-0.713,0.381-1.198C357.906,442.16,357.115,442.279,357.717,442.172
			C357.506,442.505,357.438,442.222,357.717,442.172z"/>
		<path fill="none" stroke="#000000" stroke-width="0.5" stroke-miterlimit="10" d="M360.698,444.334
			c-0.019-0.038-0.018-0.068-0.02-0.1C360.641,444.287,360.626,444.322,360.698,444.334z"/>
		<path fill="none" stroke="#000000" stroke-width="0.5" stroke-miterlimit="10" d="M360.453,444.074
			c0.287-0.412-0.456-0.813-0.29-1.045C361.259,446.979,360.092,443.207,360.453,444.074
			C360.477,444.042,360.295,443.693,360.453,444.074z"/>
		<path fill="none" stroke="#000000" stroke-width="0.5" stroke-miterlimit="10" d="M359.068,443.232
			C358.436,443.983,358.943,443.843,359.068,443.232C359.068,443.232,359.033,443.405,359.068,443.232z"/>
		<path fill="none" stroke="#000000" stroke-width="0.5" stroke-miterlimit="10" d="M356.366,441.891
			C355.946,440.825,356.561,442.385,356.366,441.891L356.366,441.891z"/>
		<path fill="none" stroke="#000000" stroke-width="0.5" stroke-miterlimit="10" d="M355.723,441.945
			C355.596,441.167,355.693,441.761,355.723,441.945L355.723,441.945z"/>
		<path fill="none" stroke="#000000" stroke-width="0.5" stroke-miterlimit="10" d="M319.438,446.855l-0.145,0.112
			C319.361,446.934,319.405,446.896,319.438,446.855z"/>
		<path fill="none" stroke="#000000" stroke-width="0.5" stroke-miterlimit="10" d="M320.49,446.883l0.025-0.195
			C320.467,446.795,320.447,446.874,320.49,446.883z"/>
		<path fill="none" stroke="#000000" stroke-width="0.5" stroke-miterlimit="10" d="M339.932,441.99
			C339.361,440.995,339.582,441.652,339.932,441.99C339.719,441.62,339.834,441.896,339.932,441.99z"/>
		<path fill="none" stroke="#000000" stroke-width="0.5" stroke-miterlimit="10" d="M329.115,444.58
			C329.262,444.893,329.626,443.87,329.115,444.58C329.135,444.622,329.188,444.479,329.115,444.58z"/>
		<path fill="none" stroke="#000000" stroke-width="0.5" stroke-miterlimit="10" d="M328.967,446.375l-0.279-0.279
			C328.75,446.193,328.84,446.287,328.967,446.375z"/>
		<path fill="none" stroke="#000000" stroke-width="0.5" stroke-miterlimit="10" d="M313.689,447.315l-0.17,0.442
			C313.785,447.755,313.668,447.532,313.689,447.315z"/>
		<path fill="none" stroke="#000000" stroke-width="0.5" stroke-miterlimit="10" d="M349.137,442.105
			c-0.182-0.17-0.328-0.241-0.455-0.262C348.901,442.092,349.079,442.466,349.137,442.105z"/>
		<path fill="none" stroke="#000000" stroke-width="0.5" stroke-miterlimit="10" d="M319.852,442.252
			c-0.088,0.078-0.127,0.166-0.124,0.264C319.819,442.441,319.871,442.357,319.852,442.252z"/>
		<path fill="none" stroke="#000000" stroke-width="0.5" stroke-miterlimit="10" d="M348.154,441.845
			C348.752,442.673,348.695,440.93,348.154,441.845C348.186,441.889,348.332,441.543,348.154,441.845z"/>
		<path fill="none" stroke="#000000" stroke-width="0.5" stroke-miterlimit="10" d="M292.84,446.956
			c-0.015-0.02-0.033-0.028-0.047-0.052C292.788,446.963,292.809,446.966,292.84,446.956z"/>
		<path fill="none" stroke="#000000" stroke-width="0.5" stroke-miterlimit="10" d="M286.766,442.578
			c0.06-0.027,0.157-0.027,0.25-0.033C286.971,442.516,286.896,442.518,286.766,442.578z"/>
		<path fill="none" stroke="#000000" stroke-width="0.5" stroke-miterlimit="10" d="M353.136,441.756
			C353.271,441.728,353.157,441.708,353.136,441.756L353.136,441.756z"/>
		<path fill="none" stroke="#000000" stroke-width="0.5" stroke-miterlimit="10" d="M353.799,443.472
			c-0.029,0.049-0.051,0.11-0.055,0.211C353.756,443.578,353.775,443.512,353.799,443.472z"/>
		<path fill="none" stroke="#000000" stroke-width="0.5" stroke-miterlimit="10" d="M346.795,444.545l-0.012-0.002
			C346.824,444.629,346.816,444.612,346.795,444.545z"/>
		<path fill="none" stroke="#000000" stroke-width="0.5" stroke-miterlimit="10" d="M353.341,441.953
			c-0.051-0.053-0.11-0.098-0.175-0.129C353.195,441.857,353.248,441.9,353.341,441.953z"/>
		<path fill="none" stroke="#000000" stroke-width="0.5" stroke-miterlimit="10" d="M353.313,441.748
			c0.048,0.017,0.084,0.029,0.119,0.042C353.449,441.718,353.435,441.672,353.313,441.748z"/>
		<path fill="none" stroke="#000000" stroke-width="0.5" stroke-miterlimit="10" d="M352.945,441.779
			C353.331,441.745,353.128,441.757,352.945,441.779C353.023,441.772,353.039,441.768,352.945,441.779z"/>
		<path fill="none" stroke="#000000" stroke-width="0.5" stroke-miterlimit="10" d="M304.011,445.795
			c-0.009-0.014-0.02-0.022-0.029-0.041C303.844,445.934,303.905,445.905,304.011,445.795z"/>
		<path fill="none" stroke="#000000" stroke-width="0.5" stroke-miterlimit="10" d="M336.382,446.495
			C336.395,446.485,336.393,446.419,336.382,446.495C336.389,446.49,336.382,446.495,336.382,446.495z"/>
		<path fill="none" stroke="#000000" stroke-width="0.5" stroke-miterlimit="10" d="M335.892,446.818
			c0.253-0.655,0.733-0.559,0.323-1.61C336.107,445.745,336,446.281,335.892,446.818z"/>
		<path fill="none" stroke="#000000" stroke-width="0.5" stroke-miterlimit="10" d="M316.918,446.98
			c-0.081,0.45-0.098,0.903-0.049,1.358c0.066-1.863,3.404-1.062,4.397-2.35c0.497,1.147,0.122,0.944,1.193,2.237
			c-2.032-2.459,1.294-1.392,1.452-0.517c0.245,0.049,2.059-1.87,2.861-1.775c1.614,0.188,1.947,0.542,2.626-2.229
			c0.767,1.215-0.854,1.274-0.028,2.767c0.675-0.674,1.613-1.577,2.521-1.905c-0.241,0.624,0.186,2.025-1.107,1.619
			c3.316,1.03,5.214-0.556,5.844-2.594c-0.133,1.027-0.281,4.563,0.284,1.727c0.617,1.553,0.937,1.507,0.96-0.137
			c0.025,3.089-0.551-1.501,0.619,1.396c1.902-0.938,0.62-2.752,1.842-0.303c0.115-1.188,0.531-2.26,1.246-3.214
			c0.17,0.285,0.354,0.27,0.551-0.046c-0.148,0.47-1.133,4.211-1.339,4.244c0.872,0.218,1.364-0.127,1.476-1.035
			c-2.232,1.676-0.412-0.837,0.214-1.092c0.089,1.136,1.674,1.621,1.667,1.721c-0.336-1.229-0.376-2.468-0.12-3.717
			c0.571,0.943,0.819,1.964,0.743,3.062c0.073-1.527,0.106,0.092,0.447,0.003c0.409-0.779,0.906-1.5,1.49-2.159
			c-0.07,0.661,1.848,1.323,2.096,1.969c0.012-0.209,1.366-2.074-0.13-0.664c-0.002-1.387,3.62-4.396,3.026-1.1
			c-2.865-0.05,0.854,0-1.101,0.094c2.222,0.741,3.328-1.071,3.202-0.876c0.571-0.866,2.064-0.583,1.26-1.802
			c0.236,0.891-0.978-0.048-0.597,0.889c-0.87-1.521-1.503-0.765-2.056,0.342c-0.699-0.92-11.793-1.534-12.877-0.955
			c-0.033,0.311-0.123,0.604-0.27,0.881c-0.146-0.837-2.607,0.709-2.59,0.674c-0.326-0.484-7.233-0.842-6.514-1.86
			c-0.494,0.582-0.916,1.213-1.264,1.892c0.209,0.563-7.592,0.022-5.698-1.66c-0.694,0.042-7.317,0.406-7.749,1.285
			c-0.376-0.33-7.865-0.777-5.924,1.232c-1.483,0.562-3.801-3.024-5.534-1.347c-0.023-0.035-0.869-0.361-0.335-0.906
			c-0.85,0.399-2.342,0.057-1.817,1.358c-0.928-2.415-2.798,0.566-3.714,0.377c-0.115-0.652-0.445-1.167-0.989-1.545
			c0.284,0.669-1.067,0.155-0.641,1.065c-1.494-0.518-9.686-1.237-9.459-0.168c-0.369-0.285-0.783-0.473-1.242-0.562
			c-4.259,0.41,5.765,4.642,5.07,3.873c-0.532-1.05,1.115-0.304,1.839-0.35c1.907,1.595,5.242-0.435,7.297-0.947
			c-1.211,1.215,1.318,0.867,1.471,1.354c0.269-0.737-0.946-0.687-0.374-1.286c0.762-0.798,1.092,1.894,2.151,1.199
			c0.832-0.547-1.069-1.469,1.086-1.19c-0.17,0.624,0.463,0.981-0.932,1.348c0.19-0.101,1.274,0.185,1.591-0.411
			c-0.086,0.324,0.33,1.791,0.65,0.059c0.808-0.58,0.666,1.205,1.502,1.014c-0.717-0.123,1.477-1.575,1.927-1.325
			c-0.017,0.349-0.019,0.696-0.006,1.045c0.442-0.317,0.862-0.664,1.258-1.039c-0.067,0.548-0.129,0.516-0.21,1.084
			c0.699,0.525,0.916-0.353,1.281-0.71c0.525,0.288,0.541,0.667,0.047,1.136c2.33-0.288,3.338,0.867,4.404-0.9
			C317.043,447.153,315.502,447.515,316.918,446.98C316.91,447.028,317.722,446.677,316.918,446.98z M322.059,446.669
			c-0.1,0.101-0.299,0.413-0.371,0.129C321.801,446.245,321.889,446.51,322.059,446.669z M329.873,445.508
			c-0.074,0.159-0.189,0.08-0.318-0.103C329.648,445.365,329.754,445.384,329.873,445.508z M351.641,442.148l-0.01,0.023
			C351.408,441.984,351.486,442.059,351.641,442.148z M352.103,442.357C352.535,441.739,351.558,442.786,352.103,442.357
			C352.148,442.291,351.965,442.466,352.103,442.357z M302.554,442.548l0.09,0.126C302.441,442.812,302.498,442.688,302.554,442.548
			z"/>
		<path fill="none" stroke="#000000" stroke-width="0.5" stroke-miterlimit="10" d="M328.986,446.168
			c-0.028-0.082-0.036-0.172-0.043-0.263C328.904,445.986,328.904,446.08,328.986,446.168z"/>
		<path fill="none" stroke="#000000" stroke-width="0.5" stroke-miterlimit="10" d="M313.721,447.234
			C313.711,447.227,313.631,447.431,313.721,447.234C313.715,447.23,313.721,447.234,313.721,447.234z"/>
		<path fill="none" stroke="#000000" stroke-width="0.5" stroke-miterlimit="10" d="M344.955,446.448
			c-0.095-0.069-0.147-0.157-0.184-0.249C344.768,446.317,344.811,446.417,344.955,446.448z"/>
		<path fill="none" stroke="#000000" stroke-width="0.5" stroke-miterlimit="10" d="M354.547,441.538
			C354.074,442.114,354.566,441.536,354.547,441.538C354.547,441.538,354.455,441.546,354.547,441.538z"/>
		<path fill="none" stroke="#000000" stroke-width="0.5" stroke-miterlimit="10" d="M357.113,444.523
			C357.457,444.054,357.029,444.481,357.113,444.523C357.156,444.465,356.922,444.428,357.113,444.523z"/>
		<path fill="none" stroke="#000000" stroke-width="0.5" stroke-miterlimit="10" d="M354.82,443.141
			C354.881,444.181,355.728,442.371,354.82,443.141C354.844,443.547,355.041,442.954,354.82,443.141z"/>
		<path fill="none" stroke="#000000" stroke-width="0.5" stroke-miterlimit="10" d="M355.285,443.32
			c0.063-0.02,0.129-0.029,0.191-0.01C355.5,443.082,355.398,443.263,355.285,443.32z"/>
		<path fill="none" stroke="#000000" stroke-width="0.5" stroke-miterlimit="10" d="M352.688,442.089
			c0.098,0.104,0.062-0.519,0.117-0.354C352.914,441.219,352.15,442.36,352.688,442.089z"/>
		<path fill="none" stroke="#000000" stroke-width="0.5" stroke-miterlimit="10" d="M354.988,444.479
			C354.641,443.456,354.936,444.322,354.988,444.479L354.988,444.479z"/>
		<path fill="none" stroke="#000000" stroke-width="0.5" stroke-miterlimit="10" d="M353.354,444.11
			C354.31,444.239,353.352,444.075,353.354,444.11C353.354,444.11,353.346,443.962,353.354,444.11z"/>
		<path fill="none" stroke="#000000" stroke-width="0.5" stroke-miterlimit="10" d="M353.773,444.078
			c0.105,0.01,0.207-0.001,0.266-0.083C353.982,444,353.858,444.018,353.773,444.078z"/>
		<path fill="none" stroke="#000000" stroke-width="0.5" stroke-miterlimit="10" d="M354.537,444.629
			C354.383,444.548,353.856,444.27,354.537,444.629L354.537,444.629z"/>
		<path fill="none" stroke="#000000" stroke-width="0.5" stroke-miterlimit="10" d="M349.798,444.014
			C349.139,444.635,349.852,444.176,349.798,444.014C349.798,444.014,349.854,444.18,349.798,444.014z"/>
		<path fill="none" stroke="#000000" stroke-width="0.5" stroke-miterlimit="10" d="M350.89,445.386
			C350.338,444.796,351.03,445.464,350.89,445.386C350.792,445.281,350.89,445.386,350.89,445.386z"/>
		<path fill="none" stroke="#000000" stroke-width="0.5" stroke-miterlimit="10" d="M349.837,445.531
			c-0.036,0.172-0.524,0.494-0.066,0.455C349.807,445.815,350.169,445.672,349.837,445.531z"/>
		<path fill="none" stroke="#000000" stroke-width="0.5" stroke-miterlimit="10" d="M344.396,444.745
			c0.008-0.068,0.109-0.807,0.079-1.026C344.449,444.061,344.424,444.403,344.396,444.745z"/>
		<path fill="none" stroke="#000000" stroke-width="0.5" stroke-miterlimit="10" d="M339.603,447.182
			C340.561,447.729,339.229,445.074,339.603,447.182C340.03,447.426,339.484,446.512,339.603,447.182z"/>
		<path fill="none" stroke="#000000" stroke-width="0.5" stroke-miterlimit="10" d="M339.878,446.401
			c0.041-0.04,0.085-0.089,0.132-0.155C339.935,446.311,339.899,446.359,339.878,446.401z"/>
		<path fill="none" stroke="#000000" stroke-width="0.5" stroke-miterlimit="10" d="M285.758,442.031
			C285.01,441.738,285.812,442.053,285.758,442.031L285.758,442.031z"/>
		<path fill="none" stroke="#000000" stroke-width="0.5" stroke-miterlimit="10" d="M285.23,442.787
			C284.966,441.854,285.119,442.444,285.23,442.787C285.23,442.787,285.183,442.641,285.23,442.787z"/>
		<path fill="none" stroke="#000000" stroke-width="0.5" stroke-miterlimit="10" d="M322.822,447.977
			C322.748,447.812,322.455,447.151,322.822,447.977L322.822,447.977z"/>
		<path fill="none" stroke="#000000" stroke-width="0.5" stroke-miterlimit="10" d="M319.092,447.49
			C319.068,447.104,319.043,446.679,319.092,447.49L319.092,447.49z"/>
		<path fill="none" stroke="#000000" stroke-width="0.5" stroke-miterlimit="10" d="M315.96,448.239
			c0.128,0.024,0.278-0.106,0.406-0.081C316.088,448.264,315.926,447.508,315.96,448.239z"/>
	</g>
	<g>
		<path fill="none" stroke="#000000" stroke-width="0.5" stroke-miterlimit="10" d="M285.097,431.099
			c-0.122,0.036-0.078-0.382-0.097-0.458C285.205,430.734,285.092,431.207,285.097,431.099z"/>
		<path fill="none" stroke="#000000" stroke-width="0.5" stroke-miterlimit="10" d="M287.12,432.05
			C286.641,431.764,288.051,432.605,287.12,432.05L287.12,432.05z"/>
		<path fill="none" stroke="#000000" stroke-width="0.5" stroke-miterlimit="10" d="M289.012,432.042
			c-0.215,0.857-1.135,0.088-1.23-0.272C289.228,432.589,288.804,432.186,289.012,432.042
			C288.941,432.324,288.723,432.241,289.012,432.042z"/>
		<path fill="none" stroke="#000000" stroke-width="0.5" stroke-miterlimit="10" d="M290.02,430.498
			C289.95,430.812,289.625,430.579,290.02,430.498C289.958,430.775,289.925,430.518,290.02,430.498z"/>
		<path fill="none" stroke="#000000" stroke-width="0.5" stroke-miterlimit="10" d="M289.827,430.515
			C289.628,430.494,289.958,430.281,289.827,430.515L289.827,430.515z"/>
		<path fill="none" stroke="#000000" stroke-width="0.5" stroke-miterlimit="10" d="M290.747,430.674
			C290.45,429.836,290.964,430.292,290.747,430.674C290.747,430.674,290.9,430.404,290.747,430.674z"/>
		<path fill="none" stroke="#000000" stroke-width="0.5" stroke-miterlimit="10" d="M290.996,431.195l-0.136-0.105
			C290.884,431.021,290.92,430.997,290.996,431.195z"/>
		<path fill="none" stroke="#000000" stroke-width="0.5" stroke-miterlimit="10" d="M290.572,430.868
			C290.994,431.34,290.852,431.21,290.572,430.868C290.572,430.868,290.694,431.018,290.572,430.868z"/>
		<path fill="none" stroke="#000000" stroke-width="0.5" stroke-miterlimit="10" d="M290.408,430.977
			c-0.146,0.156-0.337,0.254-0.073,0.5C289.833,431.379,289.906,430.877,290.408,430.977z"/>
		<path fill="none" stroke="#000000" stroke-width="0.5" stroke-miterlimit="10" d="M289.108,432.78
			C288.348,432.929,289.112,432.715,289.108,432.78C289.108,432.78,289.12,432.557,289.108,432.78z"/>
		<path fill="none" stroke="#000000" stroke-width="0.5" stroke-miterlimit="10" d="M292.382,430.305
			C292.448,430.905,292.336,431.108,292.382,430.305C292.398,430.456,292.369,430.529,292.382,430.305z"/>
		<path fill="none" stroke="#000000" stroke-width="0.5" stroke-miterlimit="10" d="M292.274,430.903l0.29,0.261
			C292.306,431.195,292.258,431.07,292.274,430.903z"/>
		<path fill="none" stroke="#000000" stroke-width="0.5" stroke-miterlimit="10" d="M291.043,431.987
			C290.334,431.115,290.827,431.721,291.043,431.987L291.043,431.987z"/>
		<path fill="none" stroke="#000000" stroke-width="0.5" stroke-miterlimit="10" d="M293.49,430.285
			C293.127,429.067,293.72,431.057,293.49,430.285L293.49,430.285z"/>
		<path fill="none" stroke="#000000" stroke-width="0.5" stroke-miterlimit="10" d="M294.224,430.347
			C293.937,429.659,295.007,429.519,294.224,430.347C294.103,430.056,294.449,430.108,294.224,430.347z"/>
		<path fill="none" stroke="#000000" stroke-width="0.5" stroke-miterlimit="10" d="M295.043,430.529
			c-0.082-0.07-0.166-0.195-0.258-0.328C294.873,430.27,294.958,430.365,295.043,430.529z"/>
		<path fill="none" stroke="#000000" stroke-width="0.5" stroke-miterlimit="10" d="M293.058,431.089
			C293.319,430.022,293.431,431.07,293.058,431.089C293.081,430.997,293.098,431.087,293.058,431.089z"/>
		<path fill="none" stroke="#000000" stroke-width="0.5" stroke-miterlimit="10" d="M293.168,431.096
			C293.226,431.087,293.77,431.006,293.168,431.096C293.168,431.096,293.312,431.074,293.168,431.096z"/>
		<path fill="none" stroke="#000000" stroke-width="0.5" stroke-miterlimit="10" d="M293.029,431.091l0.029-0.002
			C293.047,431.131,293.041,431.145,293.029,431.091z"/>
		<path fill="none" stroke="#000000" stroke-width="0.5" stroke-miterlimit="10" d="M291.803,431.601
			c0.171,0.239,0.526,0.495,0.183,0.859C291.863,432.168,292.06,431.96,291.803,431.601z"/>
		<path fill="none" stroke="#000000" stroke-width="0.5" stroke-miterlimit="10" d="M292.888,431.625
			C292.608,431.522,292.174,431.365,292.888,431.625L292.888,431.625z"/>
		<path fill="none" stroke="#000000" stroke-width="0.5" stroke-miterlimit="10" d="M293.039,431.761
			C292.872,431.492,292.933,431.591,293.039,431.761L293.039,431.761z"/>
		<path fill="none" stroke="#000000" stroke-width="0.5" stroke-miterlimit="10" d="M294.516,430.93
			C295.19,431.868,294.34,430.915,294.516,430.93C294.649,431.115,294.327,430.914,294.516,430.93z"/>
		<path fill="none" stroke="#000000" stroke-width="0.5" stroke-miterlimit="10" d="M293.861,431.048l0.03,0.024
			C293.873,431.108,293.858,431.12,293.861,431.048z"/>
		<path fill="none" stroke="#000000" stroke-width="0.5" stroke-miterlimit="10" d="M296.577,431.158
			C296.521,431.327,296.568,431.175,296.577,431.158C296.569,431.182,296.577,431.158,296.577,431.158z"/>
		<path fill="none" stroke="#000000" stroke-width="0.5" stroke-miterlimit="10" d="M294.398,431.369
			C294.287,431.438,293.906,431.132,294.398,431.369C294.266,431.451,294.44,431.39,294.398,431.369z"/>
		<path fill="none" stroke="#000000" stroke-width="0.5" stroke-miterlimit="10" d="M295.495,430.729
			c-0.069,0.09-0.147,0.166-0.229,0.235C295.333,430.828,295.471,430.617,295.495,430.729z"/>
		<path fill="none" stroke="#000000" stroke-width="0.5" stroke-miterlimit="10" d="M293.935,430.954
			c-0.006-0.007-0.012-0.015-0.02-0.019C293.959,430.844,293.954,430.889,293.935,430.954z"/>
		<path fill="none" stroke="#000000" stroke-width="0.5" stroke-miterlimit="10" d="M293.935,430.954
			C294.396,431.369,293.859,431.225,293.935,430.954C294.003,431.016,293.923,430.996,293.935,430.954z"/>
		<path fill="none" stroke="#000000" stroke-width="0.5" stroke-miterlimit="10" d="M297.068,433.9
			c-0.085-1.431-1.187-0.774-0.517-2.665C296.601,432.194,297.451,433.5,297.068,433.9
			C297.012,432.964,297.166,433.798,297.068,433.9z"/>
		<path fill="none" stroke="#000000" stroke-width="0.5" stroke-miterlimit="10" d="M295.971,431.275
			C296.541,430.826,296.551,430.818,295.971,431.275L295.971,431.275z"/>
		<path fill="none" stroke="#000000" stroke-width="0.5" stroke-miterlimit="10" d="M295.284,431.225
			c0.071,0.36,0.143,0.721,0.214,1.081c-0.378-0.313-0.505-0.713-0.38-1.198C295.094,431.213,295.885,431.332,295.284,431.225
			C295.495,431.558,295.563,431.274,295.284,431.225z"/>
		<path fill="none" stroke="#000000" stroke-width="0.5" stroke-miterlimit="10" d="M292.302,433.387
			c0.019-0.038,0.018-0.068,0.02-0.1C292.359,433.34,292.374,433.375,292.302,433.387z"/>
		<path fill="none" stroke="#000000" stroke-width="0.5" stroke-miterlimit="10" d="M292.546,433.127
			c-0.287-0.412,0.457-0.813,0.291-1.045C291.741,436.032,292.909,432.26,292.546,433.127
			C292.524,433.095,292.706,432.746,292.546,433.127z"/>
		<path fill="none" stroke="#000000" stroke-width="0.5" stroke-miterlimit="10" d="M293.932,432.285
			C294.564,433.036,294.056,432.896,293.932,432.285C293.932,432.285,293.967,432.458,293.932,432.285z"/>
		<path fill="none" stroke="#000000" stroke-width="0.5" stroke-miterlimit="10" d="M296.634,430.943
			C297.054,429.878,296.439,431.438,296.634,430.943L296.634,430.943z"/>
		<path fill="none" stroke="#000000" stroke-width="0.5" stroke-miterlimit="10" d="M297.277,430.998
			C297.404,430.22,297.307,430.813,297.277,430.998L297.277,430.998z"/>
		<path fill="none" stroke="#000000" stroke-width="0.5" stroke-miterlimit="10" d="M333.562,435.908l0.145,0.112
			C333.639,435.986,333.595,435.948,333.562,435.908z"/>
		<path fill="none" stroke="#000000" stroke-width="0.5" stroke-miterlimit="10" d="M332.51,435.936l-0.025-0.195
			C332.533,435.848,332.553,435.927,332.51,435.936z"/>
		<path fill="none" stroke="#000000" stroke-width="0.5" stroke-miterlimit="10" d="M313.068,431.043
			C313.639,430.048,313.418,430.705,313.068,431.043C313.281,430.673,313.166,430.949,313.068,431.043z"/>
		<path fill="none" stroke="#000000" stroke-width="0.5" stroke-miterlimit="10" d="M323.885,433.633
			C323.738,433.945,323.374,432.923,323.885,433.633C323.865,433.675,323.812,433.532,323.885,433.633z"/>
		<path fill="none" stroke="#000000" stroke-width="0.5" stroke-miterlimit="10" d="M324.033,435.428l0.279-0.279
			C324.25,435.246,324.16,435.34,324.033,435.428z"/>
		<path fill="none" stroke="#000000" stroke-width="0.5" stroke-miterlimit="10" d="M339.311,436.368l0.17,0.442
			C339.215,436.808,339.332,436.585,339.311,436.368z"/>
		<path fill="none" stroke="#000000" stroke-width="0.5" stroke-miterlimit="10" d="M303.863,431.158
			c0.183-0.17,0.328-0.241,0.456-0.262C304.099,431.145,303.921,431.519,303.863,431.158z"/>
		<path fill="none" stroke="#000000" stroke-width="0.5" stroke-miterlimit="10" d="M333.148,431.305
			c0.088,0.078,0.127,0.166,0.124,0.264C333.181,431.494,333.129,431.41,333.148,431.305z"/>
		<path fill="none" stroke="#000000" stroke-width="0.5" stroke-miterlimit="10" d="M304.846,430.897
			C304.249,431.726,304.304,429.982,304.846,430.897C304.814,430.941,304.667,430.596,304.846,430.897z"/>
		<path fill="none" stroke="#000000" stroke-width="0.5" stroke-miterlimit="10" d="M360.16,436.009
			c0.016-0.02,0.033-0.028,0.047-0.052C360.212,436.016,360.191,436.019,360.16,436.009z"/>
		<path fill="none" stroke="#000000" stroke-width="0.5" stroke-miterlimit="10" d="M366.234,431.631
			c-0.061-0.027-0.158-0.027-0.25-0.033C366.029,431.568,366.104,431.57,366.234,431.631z"/>
		<path fill="none" stroke="#000000" stroke-width="0.5" stroke-miterlimit="10" d="M299.864,430.809
			C299.728,430.78,299.843,430.761,299.864,430.809L299.864,430.809z"/>
		<path fill="none" stroke="#000000" stroke-width="0.5" stroke-miterlimit="10" d="M299.201,432.524
			c0.029,0.049,0.051,0.11,0.054,0.211C299.244,432.631,299.225,432.564,299.201,432.524z"/>
		<path fill="none" stroke="#000000" stroke-width="0.5" stroke-miterlimit="10" d="M306.205,433.598l0.012-0.002
			C306.176,433.682,306.183,433.665,306.205,433.598z"/>
		<path fill="none" stroke="#000000" stroke-width="0.5" stroke-miterlimit="10" d="M299.659,431.006
			c0.051-0.053,0.11-0.098,0.174-0.129C299.805,430.91,299.752,430.953,299.659,431.006z"/>
		<path fill="none" stroke="#000000" stroke-width="0.5" stroke-miterlimit="10" d="M299.687,430.801
			c-0.048,0.017-0.084,0.029-0.119,0.042C299.55,430.771,299.565,430.725,299.687,430.801z"/>
		<path fill="none" stroke="#000000" stroke-width="0.5" stroke-miterlimit="10" d="M300.054,430.832
			C299.669,430.798,299.872,430.81,300.054,430.832C299.976,430.825,299.961,430.82,300.054,430.832z"/>
		<path fill="none" stroke="#000000" stroke-width="0.5" stroke-miterlimit="10" d="M348.988,434.848
			c0.01-0.014,0.02-0.022,0.029-0.041C349.156,434.986,349.096,434.958,348.988,434.848z"/>
		<path fill="none" stroke="#000000" stroke-width="0.5" stroke-miterlimit="10" d="M316.618,435.548
			C316.605,435.538,316.607,435.472,316.618,435.548C316.611,435.543,316.618,435.548,316.618,435.548z"/>
		<path fill="none" stroke="#000000" stroke-width="0.5" stroke-miterlimit="10" d="M317.108,435.871
			c-0.253-0.655-0.733-0.559-0.323-1.61C316.893,434.798,317,435.334,317.108,435.871z"/>
		<path fill="none" stroke="#000000" stroke-width="0.5" stroke-miterlimit="10" d="M335.676,435.953
			c0.846,0.828,1.338,0.73,1.477-0.293c1.066,1.768,2.074,0.612,4.404,0.9c-0.494-0.469-0.479-0.848,0.047-1.136
			c0.365,0.357,0.582,1.235,1.281,0.71c-0.081-0.568-0.143-0.536-0.21-1.084c0.396,0.375,0.815,0.722,1.258,1.039
			c0.014-0.349,0.012-0.696-0.006-1.045c0.45-0.25,2.644,1.202,1.927,1.325c0.836,0.191,0.693-1.594,1.502-1.014
			c0.32,1.732,0.736,0.266,0.65-0.059c0.316,0.596,1.4,0.311,1.59,0.411c-1.395-0.366-0.761-0.724-0.932-1.348
			c2.156-0.278,0.255,0.644,1.087,1.19c1.06,0.694,1.39-1.997,2.151-1.199c0.572,0.6-0.643,0.549-0.374,1.286
			c0.153-0.486,2.683-0.139,1.471-1.354c2.056,0.513,5.391,2.542,7.298,0.947c0.722,0.046,2.373-0.699,1.839,0.35
			c-0.694,0.771,9.328-3.463,5.069-3.873c-0.459,0.089-0.873,0.276-1.242,0.562c0.228-1.068-7.965-0.35-9.459,0.168
			c0.427-0.91-0.924-0.396-0.641-1.065c-0.543,0.378-0.873,0.893-0.988,1.545c-0.916,0.189-2.786-2.792-3.715-0.377
			c0.525-1.302-0.967-0.959-1.816-1.358c0.533,0.545-0.312,0.871-0.336,0.906c-1.732-1.678-4.05,1.908-5.533,1.347
			c1.812-1.877-4.701-1.699-5.268-1.675c-2.32,0.098-6.328-0.716-8.405-0.843c1.894,1.683-5.907,2.224-5.698,1.66
			c-0.348-0.679-0.77-1.31-1.264-1.892c0.72,1.019-6.188,1.376-6.514,1.86c0.018,0.035-2.443-1.511-2.59-0.674
			c-0.146-0.277-0.236-0.57-0.27-0.881c-1.26-0.673-11.983-0.221-12.876,0.955c-0.553-1.106-1.186-1.863-2.056-0.342
			c0.381-0.937-0.833,0.002-0.596-0.889c-0.805,1.219,0.688,0.936,1.26,1.802c-0.126-0.195,0.98,1.617,3.202,0.876
			c-1.954-0.094,1.765-0.144-1.101-0.094c-0.593-3.296,3.029-0.287,3.027,1.1c-1.496-1.41-0.142,0.455-0.13,0.664
			c0.248-0.646,2.166-1.308,2.095-1.969c0.584,0.659,1.082,1.38,1.491,2.159c0.341,0.089,0.374-1.53,0.447-0.003
			c-0.076-1.099,0.172-2.119,0.743-3.062c0.256,1.249,0.216,2.487-0.12,3.717c-0.007-0.1,1.578-0.585,1.667-1.721
			c0.626,0.255,2.446,2.768,0.214,1.092c0.111,0.908,0.604,1.253,1.476,1.035c-0.206-0.033-1.19-3.774-1.339-4.244
			c0.197,0.315,0.381,0.331,0.551,0.046c0.715,0.954,1.131,2.025,1.246,3.214c0.994-1.992,0.074-1.639,1.186,0.212
			c1.238-0.22,1.268-0.344,1.275-1.306c0.023,1.644,0.343,1.689,0.96,0.137c0.565,2.837,0.417-0.699,0.284-1.727
			c0.63,2.038,2.527,3.624,5.844,2.594c-1.293,0.406-0.866-0.995-1.107-1.619c0.908,0.328,1.847,1.231,2.521,1.905
			c0.826-1.492-0.795-1.552-0.028-2.767c0.679,2.771,1.012,2.418,2.626,2.229c0.803-0.095,2.616,1.824,2.861,1.775
			c0.158-0.875,3.484-1.942,1.452,0.517c1.071-1.293,0.696-1.09,1.193-2.237c0.993,1.288,4.331,0.486,4.397,2.35
			C336.549,436.683,335.447,435.751,335.676,435.953C336.221,435.684,335.826,436.085,335.676,435.953z M331.312,435.851
			c-0.072,0.284-0.271-0.028-0.371-0.129C331.111,435.562,331.199,435.298,331.312,435.851z M323.445,434.458
			c-0.129,0.183-0.244,0.262-0.318,0.103C323.246,434.437,323.352,434.418,323.445,434.458z M301.37,431.225l-0.011-0.023
			C301.513,431.111,301.592,431.037,301.37,431.225z M301.128,431.305C300.52,431.485,301.136,431.272,301.128,431.305
			C301.01,431.34,301.095,431.432,301.128,431.305z M350.355,431.727l0.09-0.126C350.502,431.74,350.559,431.865,350.355,431.727z"
			/>
		<path fill="none" stroke="#000000" stroke-width="0.5" stroke-miterlimit="10" d="M324.014,435.221
			c0.028-0.082,0.036-0.172,0.043-0.263C324.096,435.039,324.096,435.133,324.014,435.221z"/>
		<path fill="none" stroke="#000000" stroke-width="0.5" stroke-miterlimit="10" d="M339.279,436.287
			C339.289,436.279,339.369,436.483,339.279,436.287C339.285,436.283,339.279,436.287,339.279,436.287z"/>
		<path fill="none" stroke="#000000" stroke-width="0.5" stroke-miterlimit="10" d="M308.045,435.501
			c0.095-0.069,0.147-0.157,0.184-0.249C308.232,435.37,308.189,435.47,308.045,435.501z"/>
		<path fill="none" stroke="#000000" stroke-width="0.5" stroke-miterlimit="10" d="M298.453,430.591
			C298.925,431.167,298.434,430.589,298.453,430.591C298.453,430.591,298.545,430.599,298.453,430.591z"/>
		<path fill="none" stroke="#000000" stroke-width="0.5" stroke-miterlimit="10" d="M295.887,433.576
			C295.542,433.106,295.971,433.534,295.887,433.576C295.844,433.518,296.078,433.48,295.887,433.576z"/>
		<path fill="none" stroke="#000000" stroke-width="0.5" stroke-miterlimit="10" d="M298.179,432.193
			C298.119,433.233,297.272,431.424,298.179,432.193C298.156,432.6,297.959,432.007,298.179,432.193z"/>
		<path fill="none" stroke="#000000" stroke-width="0.5" stroke-miterlimit="10" d="M297.715,432.373
			c-0.064-0.02-0.129-0.029-0.191-0.01C297.5,432.135,297.602,432.315,297.715,432.373z"/>
		<path fill="none" stroke="#000000" stroke-width="0.5" stroke-miterlimit="10" d="M300.312,431.142
			c-0.098,0.104-0.062-0.519-0.117-0.354C300.085,430.271,300.85,431.413,300.312,431.142z"/>
		<path fill="none" stroke="#000000" stroke-width="0.5" stroke-miterlimit="10" d="M298.011,433.531
			C298.36,432.509,298.064,433.375,298.011,433.531L298.011,433.531z"/>
		<path fill="none" stroke="#000000" stroke-width="0.5" stroke-miterlimit="10" d="M299.646,433.163
			C298.69,433.292,299.648,433.128,299.646,433.163C299.646,433.163,299.654,433.015,299.646,433.163z"/>
		<path fill="none" stroke="#000000" stroke-width="0.5" stroke-miterlimit="10" d="M299.227,433.131
			c-0.106,0.01-0.207-0.001-0.266-0.083C299.018,433.053,299.142,433.07,299.227,433.131z"/>
		<path fill="none" stroke="#000000" stroke-width="0.5" stroke-miterlimit="10" d="M298.463,433.682
			C298.617,433.601,299.144,433.322,298.463,433.682L298.463,433.682z"/>
		<path fill="none" stroke="#000000" stroke-width="0.5" stroke-miterlimit="10" d="M303.202,433.066
			C303.862,433.688,303.148,433.229,303.202,433.066C303.202,433.066,303.146,433.232,303.202,433.066z"/>
		<path fill="none" stroke="#000000" stroke-width="0.5" stroke-miterlimit="10" d="M302.11,434.438
			C302.662,433.849,301.97,434.517,302.11,434.438C302.208,434.334,302.11,434.438,302.11,434.438z"/>
		<path fill="none" stroke="#000000" stroke-width="0.5" stroke-miterlimit="10" d="M303.163,434.584
			c0.036,0.172,0.524,0.494,0.066,0.455C303.193,434.868,302.831,434.725,303.163,434.584z"/>
		<path fill="none" stroke="#000000" stroke-width="0.5" stroke-miterlimit="10" d="M308.604,433.798
			c-0.008-0.068-0.109-0.807-0.079-1.026C308.551,433.113,308.576,433.456,308.604,433.798z"/>
		<path fill="none" stroke="#000000" stroke-width="0.5" stroke-miterlimit="10" d="M313.397,436.234
			C312.439,436.781,313.771,434.127,313.397,436.234C312.97,436.479,313.516,435.564,313.397,436.234z"/>
		<path fill="none" stroke="#000000" stroke-width="0.5" stroke-miterlimit="10" d="M313.122,435.454
			c-0.041-0.04-0.085-0.089-0.132-0.155C313.065,435.363,313.101,435.412,313.122,435.454z"/>
		<path fill="none" stroke="#000000" stroke-width="0.5" stroke-miterlimit="10" d="M367.242,431.084
			C367.99,430.791,367.188,431.105,367.242,431.084L367.242,431.084z"/>
		<path fill="none" stroke="#000000" stroke-width="0.5" stroke-miterlimit="10" d="M367.77,431.84
			C368.034,430.907,367.882,431.497,367.77,431.84C367.77,431.84,367.817,431.693,367.77,431.84z"/>
		<path fill="none" stroke="#000000" stroke-width="0.5" stroke-miterlimit="10" d="M330.178,437.029
			C330.252,436.864,330.545,436.204,330.178,437.029L330.178,437.029z"/>
		<path fill="none" stroke="#000000" stroke-width="0.5" stroke-miterlimit="10" d="M333.908,436.543
			C333.932,436.157,333.957,435.731,333.908,436.543L333.908,436.543z"/>
		<path fill="none" stroke="#000000" stroke-width="0.5" stroke-miterlimit="10" d="M337.04,437.292
			c-0.128,0.024-0.278-0.106-0.406-0.081C336.912,437.316,337.074,436.561,337.04,437.292z"/>
	</g>
</g>
<g id="Layer_2">
	<rect x="277.5" y="392.089" fill="none" stroke="#000000" stroke-width="0.5" stroke-miterlimit="10" width="98" height="66"/>
	<rect x="285" y="395.089" fill="none" stroke="#000000" stroke-width="0.5" stroke-miterlimit="10" width="83" height="56"/>
	<rect x="285" y="395.844" fill="none" stroke="#000000" stroke-width="0.5" stroke-miterlimit="10" width="83" height="54.245"/>
	<rect x="285" y="395.844" fill="none" stroke="#000000" stroke-width="0.5" stroke-miterlimit="10" width="83" height="53.669"/>
	<rect x="321" y="451.089" fill="none" stroke="#000000" stroke-width="0.5" stroke-miterlimit="10" width="17" height="3.5"/>
	<rect x="321" y="449.089" fill="none" stroke="#000000" stroke-width="0.5" stroke-miterlimit="10" width="17" height="3.5"/>
	<rect x="321" y="450.089" fill="none" stroke="#000000" stroke-width="0.5" stroke-miterlimit="10" width="17" height="3.5"/>
	<rect x="275.5" y="391.502" fill="none" stroke="#000000" stroke-width="0.5" stroke-miterlimit="10" width="102" height="68"/>
	<rect x="284" y="394" fill="none" stroke="#000000" stroke-width="0.5" stroke-miterlimit="10" width="85" height="58"/>
</g>
</svg>
